%TF.GenerationSoftware,KiCad,Pcbnew,(6.0.4)*%
%TF.CreationDate,2022-04-21T21:48:52-10:00*%
%TF.ProjectId,filter_v2,66696c74-6572-45f7-9632-2e6b69636164,rev?*%
%TF.SameCoordinates,Original*%
%TF.FileFunction,Copper,L1,Top*%
%TF.FilePolarity,Positive*%
%FSLAX46Y46*%
G04 Gerber Fmt 4.6, Leading zero omitted, Abs format (unit mm)*
G04 Created by KiCad (PCBNEW (6.0.4)) date 2022-04-21 21:48:52*
%MOMM*%
%LPD*%
G01*
G04 APERTURE LIST*
G04 Aperture macros list*
%AMRoundRect*
0 Rectangle with rounded corners*
0 $1 Rounding radius*
0 $2 $3 $4 $5 $6 $7 $8 $9 X,Y pos of 4 corners*
0 Add a 4 corners polygon primitive as box body*
4,1,4,$2,$3,$4,$5,$6,$7,$8,$9,$2,$3,0*
0 Add four circle primitives for the rounded corners*
1,1,$1+$1,$2,$3*
1,1,$1+$1,$4,$5*
1,1,$1+$1,$6,$7*
1,1,$1+$1,$8,$9*
0 Add four rect primitives between the rounded corners*
20,1,$1+$1,$2,$3,$4,$5,0*
20,1,$1+$1,$4,$5,$6,$7,0*
20,1,$1+$1,$6,$7,$8,$9,0*
20,1,$1+$1,$8,$9,$2,$3,0*%
G04 Aperture macros list end*
%TA.AperFunction,SMDPad,CuDef*%
%ADD10R,1.969999X0.558000*%
%TD*%
%TA.AperFunction,SMDPad,CuDef*%
%ADD11R,1.258799X0.508000*%
%TD*%
%TA.AperFunction,SMDPad,CuDef*%
%ADD12RoundRect,0.200000X-0.200000X-0.275000X0.200000X-0.275000X0.200000X0.275000X-0.200000X0.275000X0*%
%TD*%
%TA.AperFunction,SMDPad,CuDef*%
%ADD13RoundRect,0.200000X0.200000X0.275000X-0.200000X0.275000X-0.200000X-0.275000X0.200000X-0.275000X0*%
%TD*%
%TA.AperFunction,SMDPad,CuDef*%
%ADD14RoundRect,0.200000X0.275000X-0.200000X0.275000X0.200000X-0.275000X0.200000X-0.275000X-0.200000X0*%
%TD*%
%TA.AperFunction,SMDPad,CuDef*%
%ADD15RoundRect,0.250000X-0.250000X-0.475000X0.250000X-0.475000X0.250000X0.475000X-0.250000X0.475000X0*%
%TD*%
%TA.AperFunction,ComponentPad*%
%ADD16C,3.800000*%
%TD*%
%TA.AperFunction,SMDPad,CuDef*%
%ADD17RoundRect,0.140000X-0.140000X-0.170000X0.140000X-0.170000X0.140000X0.170000X-0.140000X0.170000X0*%
%TD*%
%TA.AperFunction,ComponentPad*%
%ADD18C,1.600000*%
%TD*%
%TA.AperFunction,ComponentPad*%
%ADD19O,1.600000X1.600000*%
%TD*%
%TA.AperFunction,SMDPad,CuDef*%
%ADD20RoundRect,0.140000X0.140000X0.170000X-0.140000X0.170000X-0.140000X-0.170000X0.140000X-0.170000X0*%
%TD*%
%TA.AperFunction,SMDPad,CuDef*%
%ADD21RoundRect,0.250000X0.475000X-0.250000X0.475000X0.250000X-0.475000X0.250000X-0.475000X-0.250000X0*%
%TD*%
%TA.AperFunction,ComponentPad*%
%ADD22R,1.730000X2.030000*%
%TD*%
%TA.AperFunction,ComponentPad*%
%ADD23O,1.730000X2.030000*%
%TD*%
%TA.AperFunction,ViaPad*%
%ADD24C,0.800000*%
%TD*%
%TA.AperFunction,Conductor*%
%ADD25C,0.250000*%
%TD*%
G04 APERTURE END LIST*
D10*
%TO.P,U4,1,OUT1*%
%TO.N,output*%
X150571200Y-74295000D03*
%TO.P,U4,2,-IN1*%
%TO.N,Net-(C13-Pad2)*%
X150571200Y-75565000D03*
%TO.P,U4,3,+IN1*%
%TO.N,ref*%
X150571200Y-76835000D03*
%TO.P,U4,4,-VS*%
%TO.N,GND*%
X150571200Y-78105000D03*
%TO.P,U4,5,+IN2*%
%TO.N,ref*%
X155498800Y-78105000D03*
%TO.P,U4,6,-IN2*%
%TO.N,Net-(U4-Pad7)*%
X155498800Y-76835000D03*
%TO.P,U4,7,OUT2*%
X155498800Y-75565000D03*
%TO.P,U4,8,+VS*%
%TO.N,+3V3*%
X155498800Y-74295000D03*
%TD*%
%TO.P,U3,1,OUT1*%
%TO.N,Net-(C6-Pad2)*%
X150571200Y-66040000D03*
%TO.P,U3,2,-IN1*%
%TO.N,Net-(C7-Pad2)*%
X150571200Y-67310000D03*
%TO.P,U3,3,+IN1*%
%TO.N,ref*%
X150571200Y-68580000D03*
%TO.P,U3,4,-VS*%
%TO.N,GND*%
X150571200Y-69850000D03*
%TO.P,U3,5,+IN2*%
%TO.N,ref*%
X155498800Y-69850000D03*
%TO.P,U3,6,-IN2*%
%TO.N,Net-(C11-Pad2)*%
X155498800Y-68580000D03*
%TO.P,U3,7,OUT2*%
%TO.N,Net-(C10-Pad2)*%
X155498800Y-67310000D03*
%TO.P,U3,8,+VS*%
%TO.N,+3V3*%
X155498800Y-66040000D03*
%TD*%
D11*
%TO.P,U2,1,VOUT*%
%TO.N,ref*%
X139115800Y-68899999D03*
%TO.P,U2,2,-VS*%
%TO.N,GND*%
X139115800Y-69850000D03*
%TO.P,U2,3,+IN*%
%TO.N,Net-(C2-Pad1)*%
X139115800Y-70800001D03*
%TO.P,U2,4,-IN*%
%TO.N,Net-(R7-Pad1)*%
X141554200Y-70800001D03*
%TO.P,U2,5,+VS*%
%TO.N,+3V3*%
X141554200Y-68899999D03*
%TD*%
D10*
%TO.P,U1,1,OUT1*%
%TO.N,Net-(R8-Pad1)*%
X130886200Y-76200000D03*
%TO.P,U1,2,-IN1*%
%TO.N,Net-(R2-Pad2)*%
X130886200Y-77470000D03*
%TO.P,U1,3,+IN1*%
%TO.N,ref*%
X130886200Y-78740000D03*
%TO.P,U1,4,-VS*%
%TO.N,GND*%
X130886200Y-80010000D03*
%TO.P,U1,5,+IN2*%
%TO.N,ref*%
X135813800Y-80010000D03*
%TO.P,U1,6,-IN2*%
%TO.N,Net-(C5-Pad2)*%
X135813800Y-78740000D03*
%TO.P,U1,7,OUT2*%
%TO.N,Net-(C4-Pad2)*%
X135813800Y-77470000D03*
%TO.P,U1,8,+VS*%
%TO.N,+3V3*%
X135813800Y-76200000D03*
%TD*%
D12*
%TO.P,R19,1*%
%TO.N,output*%
X161745000Y-79710000D03*
%TO.P,R19,2*%
%TO.N,Net-(C13-Pad2)*%
X163395000Y-79710000D03*
%TD*%
%TO.P,R18,1*%
%TO.N,Net-(C10-Pad2)*%
X161745000Y-73660000D03*
%TO.P,R18,2*%
%TO.N,Net-(C11-Pad2)*%
X163395000Y-73660000D03*
%TD*%
%TO.P,R17,1*%
%TO.N,Net-(C12-Pad1)*%
X158560000Y-77805000D03*
%TO.P,R17,2*%
%TO.N,ref*%
X160210000Y-77805000D03*
%TD*%
D13*
%TO.P,R16,1*%
%TO.N,Net-(C10-Pad1)*%
X160210000Y-71755000D03*
%TO.P,R16,2*%
%TO.N,ref*%
X158560000Y-71755000D03*
%TD*%
D12*
%TO.P,R15,1*%
%TO.N,Net-(C10-Pad2)*%
X158560000Y-75265000D03*
%TO.P,R15,2*%
%TO.N,Net-(C12-Pad1)*%
X160210000Y-75265000D03*
%TD*%
%TO.P,R14,1*%
%TO.N,Net-(C6-Pad2)*%
X158560000Y-69850000D03*
%TO.P,R14,2*%
%TO.N,Net-(C10-Pad1)*%
X160210000Y-69850000D03*
%TD*%
%TO.P,R13,1*%
%TO.N,Net-(C6-Pad2)*%
X142685000Y-84155000D03*
%TO.P,R13,2*%
%TO.N,Net-(C7-Pad2)*%
X144335000Y-84155000D03*
%TD*%
%TO.P,R12,1*%
%TO.N,Net-(C4-Pad2)*%
X142810000Y-75265000D03*
%TO.P,R12,2*%
%TO.N,Net-(C5-Pad2)*%
X144460000Y-75265000D03*
%TD*%
%TO.P,R11,1*%
%TO.N,Net-(C6-Pad1)*%
X146160000Y-84155000D03*
%TO.P,R11,2*%
%TO.N,ref*%
X147810000Y-84155000D03*
%TD*%
%TO.P,R10,1*%
%TO.N,Net-(C4-Pad1)*%
X142810000Y-77470000D03*
%TO.P,R10,2*%
%TO.N,ref*%
X144460000Y-77470000D03*
%TD*%
%TO.P,R9,1*%
%TO.N,Net-(C4-Pad2)*%
X139510000Y-80645000D03*
%TO.P,R9,2*%
%TO.N,Net-(C6-Pad1)*%
X141160000Y-80645000D03*
%TD*%
%TO.P,R8,1*%
%TO.N,Net-(R8-Pad1)*%
X138875000Y-77470000D03*
%TO.P,R8,2*%
%TO.N,Net-(C4-Pad1)*%
X140525000Y-77470000D03*
%TD*%
D14*
%TO.P,R7,1*%
%TO.N,Net-(R7-Pad1)*%
X137160000Y-68135000D03*
%TO.P,R7,2*%
%TO.N,ref*%
X137160000Y-66485000D03*
%TD*%
D12*
%TO.P,R6,1*%
%TO.N,Net-(C2-Pad1)*%
X133795000Y-67945000D03*
%TO.P,R6,2*%
%TO.N,GND*%
X135445000Y-67945000D03*
%TD*%
%TO.P,R5,1*%
%TO.N,+3V3*%
X133795000Y-69850000D03*
%TO.P,R5,2*%
%TO.N,Net-(C2-Pad1)*%
X135445000Y-69850000D03*
%TD*%
D13*
%TO.P,R1,1*%
%TO.N,+3V3*%
X147065000Y-90170000D03*
%TO.P,R1,2*%
%TO.N,input*%
X145415000Y-90170000D03*
%TD*%
D15*
%TO.P,C1,1*%
%TO.N,Net-(C1-Pad1)*%
X143515000Y-87330000D03*
%TO.P,C1,2*%
%TO.N,input*%
X145415000Y-87330000D03*
%TD*%
D16*
%TO.P,H2,1,1*%
%TO.N,GND*%
X162560000Y-91440000D03*
%TD*%
%TO.P,H4,1,1*%
%TO.N,GND*%
X129540000Y-91440000D03*
%TD*%
%TO.P,H1,1,1*%
%TO.N,GND*%
X162560000Y-66040000D03*
%TD*%
D17*
%TO.P,C9,1*%
%TO.N,ref*%
X143030000Y-67945000D03*
%TO.P,C9,2*%
%TO.N,GND*%
X143990000Y-67945000D03*
%TD*%
D18*
%TO.P,R2,1*%
%TO.N,Net-(C1-Pad1)*%
X140345000Y-87630000D03*
D19*
%TO.P,R2,2*%
%TO.N,Net-(R2-Pad2)*%
X130185000Y-87630000D03*
%TD*%
D17*
%TO.P,C12,1*%
%TO.N,Net-(C12-Pad1)*%
X162090000Y-75265000D03*
%TO.P,C12,2*%
%TO.N,output*%
X163050000Y-75265000D03*
%TD*%
%TO.P,C7,1*%
%TO.N,Net-(C6-Pad1)*%
X146530000Y-81280000D03*
%TO.P,C7,2*%
%TO.N,Net-(C7-Pad2)*%
X147490000Y-81280000D03*
%TD*%
D16*
%TO.P,H3,1,1*%
%TO.N,GND*%
X129540000Y-66040000D03*
%TD*%
D17*
%TO.P,C6,1*%
%TO.N,Net-(C6-Pad1)*%
X144300000Y-81280000D03*
%TO.P,C6,2*%
%TO.N,Net-(C6-Pad2)*%
X145260000Y-81280000D03*
%TD*%
D18*
%TO.P,R3,1*%
%TO.N,Net-(R8-Pad1)*%
X140335000Y-83820000D03*
D19*
%TO.P,R3,2*%
%TO.N,Net-(R2-Pad2)*%
X130175000Y-83820000D03*
%TD*%
D17*
%TO.P,C5,1*%
%TO.N,Net-(C4-Pad1)*%
X146205000Y-77470000D03*
%TO.P,C5,2*%
%TO.N,Net-(C5-Pad2)*%
X147165000Y-77470000D03*
%TD*%
%TO.P,C11,1*%
%TO.N,Net-(C10-Pad1)*%
X162080000Y-71755000D03*
%TO.P,C11,2*%
%TO.N,Net-(C11-Pad2)*%
X163040000Y-71755000D03*
%TD*%
D20*
%TO.P,C4,1*%
%TO.N,Net-(C4-Pad1)*%
X147165000Y-75265000D03*
%TO.P,C4,2*%
%TO.N,Net-(C4-Pad2)*%
X146205000Y-75265000D03*
%TD*%
D17*
%TO.P,C13,1*%
%TO.N,Net-(C12-Pad1)*%
X162090000Y-77805000D03*
%TO.P,C13,2*%
%TO.N,Net-(C13-Pad2)*%
X163050000Y-77805000D03*
%TD*%
D15*
%TO.P,C2,1*%
%TO.N,Net-(C2-Pad1)*%
X135575000Y-72390000D03*
%TO.P,C2,2*%
%TO.N,GND*%
X137475000Y-72390000D03*
%TD*%
D21*
%TO.P,C8,1*%
%TO.N,ref*%
X144145000Y-72070000D03*
%TO.P,C8,2*%
%TO.N,GND*%
X144145000Y-70170000D03*
%TD*%
D22*
%TO.P,J1,1,Pin_1*%
%TO.N,input*%
X150505000Y-87965000D03*
D23*
%TO.P,J1,2,Pin_2*%
%TO.N,+3V3*%
X153045000Y-87965000D03*
%TO.P,J1,3,Pin_3*%
%TO.N,GND*%
X155585000Y-87965000D03*
%TO.P,J1,4,Pin_4*%
%TO.N,output*%
X158125000Y-87965000D03*
%TD*%
D17*
%TO.P,C3,1*%
%TO.N,Net-(C2-Pad1)*%
X136680000Y-69850000D03*
%TO.P,C3,2*%
%TO.N,GND*%
X137640000Y-69850000D03*
%TD*%
%TO.P,C10,1*%
%TO.N,Net-(C10-Pad1)*%
X162080000Y-69850000D03*
%TO.P,C10,2*%
%TO.N,Net-(C10-Pad2)*%
X163040000Y-69850000D03*
%TD*%
D24*
%TO.N,Net-(C4-Pad2)*%
X141934733Y-75033673D03*
X137795000Y-81280000D03*
%TO.N,Net-(R7-Pad1)*%
X137795000Y-68490500D03*
X140344701Y-70574500D03*
%TO.N,ref*%
X146774511Y-68669511D03*
X146050000Y-71755000D03*
%TO.N,Net-(C5-Pad2)*%
X141041755Y-75636755D03*
X133985000Y-78105000D03*
%TO.N,Net-(R2-Pad2)*%
X132080000Y-81915000D03*
X132715000Y-77590989D03*
%TO.N,ref*%
X137795000Y-80010000D03*
X142240000Y-79375000D03*
%TO.N,+3V3*%
X148590000Y-74295000D03*
X140335000Y-74930000D03*
X142875000Y-69125500D03*
X145415000Y-67945000D03*
X153670000Y-74295000D03*
X151765000Y-86360000D03*
%TO.N,Net-(C7-Pad2)*%
X147302123Y-83142157D03*
X151859499Y-67783882D03*
X144763544Y-82620572D03*
%TO.N,Net-(C6-Pad2)*%
X144145000Y-80010000D03*
X153035000Y-69215000D03*
X142875000Y-82550000D03*
%TO.N,Net-(C11-Pad2)*%
X161920003Y-70845770D03*
X157144088Y-69458686D03*
%TO.N,Net-(C13-Pad2)*%
X160020000Y-79375000D03*
X153759500Y-76745500D03*
%TO.N,output*%
X154305000Y-80010000D03*
X153035000Y-75565000D03*
%TD*%
D25*
%TO.N,Net-(U4-Pad7)*%
X155498800Y-75565000D02*
X155498800Y-76835000D01*
%TO.N,Net-(C4-Pad2)*%
X142578673Y-75033673D02*
X142810000Y-75265000D01*
X141934733Y-75033673D02*
X142578673Y-75033673D01*
X138430000Y-80645000D02*
X137795000Y-81280000D01*
X139510000Y-80645000D02*
X138430000Y-80645000D01*
%TO.N,Net-(R7-Pad1)*%
X137795000Y-68490500D02*
X137515500Y-68490500D01*
X137515500Y-68490500D02*
X137160000Y-68135000D01*
X141554200Y-70800001D02*
X140570202Y-70800001D01*
X140570202Y-70800001D02*
X140344701Y-70574500D01*
%TO.N,GND*%
X137794520Y-69215480D02*
X137795000Y-69215000D01*
X137005480Y-69215480D02*
X137794520Y-69215480D01*
X135445000Y-67945000D02*
X135735000Y-67945000D01*
X135735000Y-67945000D02*
X137005480Y-69215480D01*
X137795000Y-69215000D02*
X137795000Y-69695000D01*
X137795000Y-69695000D02*
X137640000Y-69850000D01*
%TO.N,Net-(R8-Pad1)*%
X140335000Y-80253217D02*
X140335000Y-83820000D01*
X138875000Y-78793217D02*
X140335000Y-80253217D01*
X138875000Y-77470000D02*
X138875000Y-78793217D01*
%TO.N,Net-(C4-Pad2)*%
X146205000Y-74450000D02*
X146205000Y-75265000D01*
X145415000Y-73660000D02*
X146205000Y-74450000D01*
X144415000Y-73660000D02*
X145415000Y-73660000D01*
X142810000Y-75265000D02*
X144415000Y-73660000D01*
%TO.N,ref*%
X146774511Y-68669511D02*
X150481689Y-68669511D01*
X145735000Y-72070000D02*
X146050000Y-71755000D01*
X144869511Y-68669511D02*
X146774511Y-68669511D01*
X144145000Y-72070000D02*
X145735000Y-72070000D01*
X144690489Y-68490489D02*
X144869511Y-68669511D01*
X144690489Y-67678559D02*
X144690489Y-68490489D01*
X143657590Y-67310480D02*
X144322410Y-67310480D01*
X143030000Y-67945000D02*
X143030000Y-67938070D01*
X143030000Y-67938070D02*
X143657590Y-67310480D01*
X144322410Y-67310480D02*
X144690489Y-67678559D01*
X150481689Y-68669511D02*
X150571200Y-68580000D01*
%TO.N,Net-(C5-Pad2)*%
X143660480Y-76064520D02*
X144460000Y-75265000D01*
X141961010Y-76064520D02*
X143660480Y-76064520D01*
X141533245Y-75636755D02*
X141961010Y-76064520D01*
X141041755Y-75636755D02*
X141533245Y-75636755D01*
X134620000Y-78740000D02*
X133985000Y-78105000D01*
X135813800Y-78740000D02*
X134620000Y-78740000D01*
%TO.N,Net-(R2-Pad2)*%
X132080000Y-81915000D02*
X130175000Y-83820000D01*
X132594011Y-77470000D02*
X132715000Y-77590989D01*
X130886200Y-77470000D02*
X132594011Y-77470000D01*
%TO.N,ref*%
X137795000Y-80010000D02*
X135813800Y-80010000D01*
X142555000Y-79375000D02*
X142240000Y-79375000D01*
X144460000Y-77470000D02*
X142555000Y-79375000D01*
X157403800Y-71755000D02*
X155498800Y-69850000D01*
X158560000Y-71755000D02*
X157403800Y-71755000D01*
X157480000Y-76829799D02*
X156709520Y-77600279D01*
X156709520Y-77600279D02*
X156709520Y-78604520D01*
X157480000Y-72835000D02*
X157480000Y-76829799D01*
X158560000Y-71755000D02*
X157480000Y-72835000D01*
X156709520Y-78604520D02*
X159410480Y-78604520D01*
X155998320Y-78604520D02*
X156709520Y-78604520D01*
X152734897Y-69939511D02*
X155409289Y-69939511D01*
X155409289Y-69939511D02*
X155498800Y-69850000D01*
X151375386Y-68580000D02*
X152734897Y-69939511D01*
X150571200Y-68580000D02*
X151375386Y-68580000D01*
%TO.N,+3V3*%
X153670000Y-73660000D02*
X153670000Y-74295000D01*
X153035000Y-73025000D02*
X153670000Y-73660000D01*
X149860000Y-73025000D02*
X153035000Y-73025000D01*
X148590000Y-74295000D02*
X149860000Y-73025000D01*
X140335000Y-74930000D02*
X139065000Y-76200000D01*
X139065000Y-76200000D02*
X135813800Y-76200000D01*
X141779701Y-69125500D02*
X141554200Y-68899999D01*
X142875000Y-69125500D02*
X141779701Y-69125500D01*
X147923511Y-65436489D02*
X145415000Y-67945000D01*
X154895289Y-65436489D02*
X147923511Y-65436489D01*
X155498800Y-66040000D02*
X154895289Y-65436489D01*
X153670000Y-74295000D02*
X155498800Y-74295000D01*
X153045000Y-87640000D02*
X151765000Y-86360000D01*
X153045000Y-87965000D02*
X153045000Y-87640000D01*
%TO.N,GND*%
X129540000Y-79369799D02*
X129540000Y-66040000D01*
X130886200Y-80010000D02*
X130180201Y-80010000D01*
X130180201Y-80010000D02*
X129540000Y-79369799D01*
X127640001Y-83256199D02*
X130886200Y-80010000D01*
X127640001Y-89540001D02*
X127640001Y-83256199D01*
X129540000Y-91440000D02*
X127640001Y-89540001D01*
X162560000Y-91440000D02*
X129540000Y-91440000D01*
%TO.N,Net-(C7-Pad2)*%
X147302123Y-81467877D02*
X147490000Y-81280000D01*
X147302123Y-83142157D02*
X147302123Y-81467877D01*
X151045082Y-67783882D02*
X150571200Y-67310000D01*
X151859499Y-67783882D02*
X151045082Y-67783882D01*
X144335000Y-83049116D02*
X144763544Y-82620572D01*
X144335000Y-84155000D02*
X144335000Y-83049116D01*
%TO.N,Net-(C6-Pad2)*%
X145260000Y-81125000D02*
X144145000Y-80010000D01*
X145260000Y-81280000D02*
X145260000Y-81125000D01*
X153035000Y-67945000D02*
X153182199Y-67945000D01*
X153035000Y-69215000D02*
X153035000Y-67945000D01*
X142685000Y-82740000D02*
X142875000Y-82550000D01*
X142685000Y-84155000D02*
X142685000Y-82740000D01*
%TO.N,ref*%
X134620000Y-80010000D02*
X135813800Y-80010000D01*
X130886200Y-78740000D02*
X133350000Y-78740000D01*
X133350000Y-78740000D02*
X134620000Y-80010000D01*
%TO.N,Net-(R8-Pad1)*%
X138271489Y-76866489D02*
X138875000Y-77470000D01*
X131552689Y-76866489D02*
X138271489Y-76866489D01*
X130886200Y-76200000D02*
X131552689Y-76866489D01*
%TO.N,+3V3*%
X133795000Y-74181200D02*
X135813800Y-76200000D01*
X133795000Y-69850000D02*
X133795000Y-74181200D01*
%TO.N,Net-(C2-Pad1)*%
X139115800Y-72339200D02*
X139115800Y-70800001D01*
X138015480Y-73439520D02*
X139115800Y-72339200D01*
X136624520Y-73439520D02*
X138015480Y-73439520D01*
X135575000Y-72390000D02*
X136624520Y-73439520D01*
X135575000Y-70165000D02*
X135575000Y-72390000D01*
X135890000Y-69850000D02*
X135575000Y-70165000D01*
X135890000Y-69850000D02*
X136680000Y-69850000D01*
X135445000Y-69850000D02*
X135890000Y-69850000D01*
X133795000Y-68200000D02*
X135445000Y-69850000D01*
X133795000Y-67945000D02*
X133795000Y-68200000D01*
%TO.N,GND*%
X133540000Y-66040000D02*
X129540000Y-66040000D01*
X135445000Y-67945000D02*
X133540000Y-66040000D01*
X137475000Y-70015000D02*
X137640000Y-69850000D01*
X137475000Y-72390000D02*
X137475000Y-70015000D01*
X137640000Y-69850000D02*
X139115800Y-69850000D01*
%TO.N,ref*%
X139115800Y-68440800D02*
X137160000Y-66485000D01*
X139115800Y-68899999D02*
X139115800Y-68440800D01*
X139115800Y-68899999D02*
X140070799Y-67945000D01*
X140070799Y-67945000D02*
X143030000Y-67945000D01*
%TO.N,GND*%
X143825000Y-69850000D02*
X144145000Y-70170000D01*
X139115800Y-69850000D02*
X143825000Y-69850000D01*
X143990000Y-70015000D02*
X144145000Y-70170000D01*
X143990000Y-67945000D02*
X143990000Y-70015000D01*
X144465000Y-69850000D02*
X150571200Y-69850000D01*
X144145000Y-70170000D02*
X144465000Y-69850000D01*
X161290000Y-64770000D02*
X162560000Y-66040000D01*
X129540000Y-66040000D02*
X130810000Y-64770000D01*
X130810000Y-64770000D02*
X161290000Y-64770000D01*
%TO.N,Net-(C11-Pad2)*%
X162920770Y-70845770D02*
X163040000Y-70965000D01*
X161920003Y-70845770D02*
X162920770Y-70845770D01*
X163040000Y-70965000D02*
X163040000Y-71755000D01*
X156265402Y-68580000D02*
X157144088Y-69458686D01*
X155498800Y-68580000D02*
X156265402Y-68580000D01*
%TO.N,Net-(C13-Pad2)*%
X163050000Y-78250000D02*
X163050000Y-77805000D01*
X160484520Y-78910480D02*
X162389520Y-78910480D01*
X162389520Y-78910480D02*
X163050000Y-78250000D01*
X152856718Y-76745500D02*
X153759500Y-76745500D01*
X151676218Y-75565000D02*
X152856718Y-76745500D01*
X160020000Y-79375000D02*
X160484520Y-78910480D01*
X150571200Y-75565000D02*
X151676218Y-75565000D01*
%TO.N,GND*%
X150571200Y-82951200D02*
X155585000Y-87965000D01*
X150571200Y-78105000D02*
X150571200Y-82951200D01*
%TO.N,output*%
X157557500Y-83262500D02*
X158192500Y-83262500D01*
X154305000Y-80010000D02*
X157557500Y-83262500D01*
X161745000Y-79710000D02*
X158192500Y-83262500D01*
X151765000Y-74295000D02*
X153035000Y-75565000D01*
X150571200Y-74295000D02*
X151765000Y-74295000D01*
X158192500Y-83262500D02*
X158125000Y-83330000D01*
%TO.N,ref*%
X154863800Y-77470000D02*
X155498800Y-78105000D01*
X152945500Y-77470000D02*
X154863800Y-77470000D01*
X150571200Y-76835000D02*
X152310500Y-76835000D01*
X152310500Y-76835000D02*
X152945500Y-77470000D01*
%TO.N,output*%
X162680000Y-80645000D02*
X161745000Y-79710000D01*
X163676783Y-80645000D02*
X162680000Y-80645000D01*
X164119520Y-76334520D02*
X164119520Y-80202263D01*
X164119520Y-80202263D02*
X163676783Y-80645000D01*
X163050000Y-75265000D02*
X164119520Y-76334520D01*
%TO.N,Net-(C10-Pad2)*%
X160165000Y-73660000D02*
X161745000Y-73660000D01*
X158560000Y-75265000D02*
X160165000Y-73660000D01*
%TO.N,Net-(C12-Pad1)*%
X160210000Y-76155000D02*
X158560000Y-77805000D01*
X160210000Y-75265000D02*
X160210000Y-76155000D01*
X160210000Y-75265000D02*
X162090000Y-75265000D01*
%TO.N,Net-(C10-Pad2)*%
X163641303Y-74630480D02*
X162715480Y-74630480D01*
X164119520Y-74152263D02*
X163641303Y-74630480D01*
X162715480Y-74630480D02*
X161745000Y-73660000D01*
X163040000Y-69850000D02*
X164119520Y-70929520D01*
X164119520Y-70929520D02*
X164119520Y-74152263D01*
X160506930Y-67310000D02*
X155498800Y-67310000D01*
X163040000Y-69843070D02*
X160506930Y-67310000D01*
X163040000Y-69850000D02*
X163040000Y-69843070D01*
%TO.N,Net-(C6-Pad2)*%
X153182199Y-67945000D02*
X156655000Y-67945000D01*
X156655000Y-67945000D02*
X158560000Y-69850000D01*
X151277199Y-66040000D02*
X153182199Y-67945000D01*
X150571200Y-66040000D02*
X151277199Y-66040000D01*
%TO.N,Net-(C10-Pad1)*%
X160210000Y-71755000D02*
X162080000Y-71755000D01*
X160210000Y-69850000D02*
X160210000Y-71755000D01*
X162080000Y-69850000D02*
X160210000Y-69850000D01*
%TO.N,Net-(C12-Pad1)*%
X162090000Y-77805000D02*
X162090000Y-75265000D01*
%TO.N,ref*%
X159410480Y-78604520D02*
X160210000Y-77805000D01*
X155498800Y-78105000D02*
X155998320Y-78604520D01*
%TO.N,output*%
X158125000Y-83330000D02*
X158125000Y-87965000D01*
%TO.N,Net-(C13-Pad2)*%
X163050000Y-79365000D02*
X163395000Y-79710000D01*
X163050000Y-77805000D02*
X163050000Y-79365000D01*
%TO.N,Net-(C11-Pad2)*%
X163040000Y-73305000D02*
X163395000Y-73660000D01*
X163040000Y-71755000D02*
X163040000Y-73305000D01*
%TO.N,ref*%
X148094520Y-79514520D02*
X147955000Y-79375000D01*
X148094520Y-83870480D02*
X148094520Y-79514520D01*
X147810000Y-84155000D02*
X148094520Y-83870480D01*
X149225000Y-77475201D02*
X149865201Y-76835000D01*
X149225000Y-78105000D02*
X149225000Y-77475201D01*
X149865201Y-76835000D02*
X150571200Y-76835000D01*
X147955000Y-79375000D02*
X149225000Y-78105000D01*
X146365000Y-79375000D02*
X147955000Y-79375000D01*
X144460000Y-77470000D02*
X146365000Y-79375000D01*
%TO.N,Net-(C4-Pad1)*%
X146685000Y-78740000D02*
X146205000Y-78260000D01*
X147320000Y-78740000D02*
X146685000Y-78740000D01*
X146205000Y-78260000D02*
X146205000Y-77470000D01*
X147955000Y-78105000D02*
X147320000Y-78740000D01*
X147955000Y-76055000D02*
X147955000Y-78105000D01*
X147165000Y-75265000D02*
X147955000Y-76055000D01*
%TO.N,Net-(C5-Pad2)*%
X145115000Y-75265000D02*
X147165000Y-77315000D01*
X147165000Y-77315000D02*
X147165000Y-77470000D01*
X144460000Y-75265000D02*
X145115000Y-75265000D01*
%TO.N,Net-(C4-Pad1)*%
X145405480Y-76670480D02*
X146205000Y-77470000D01*
X143609520Y-76670480D02*
X145405480Y-76670480D01*
X142810000Y-77470000D02*
X143609520Y-76670480D01*
X140525000Y-77470000D02*
X142810000Y-77470000D01*
%TO.N,Net-(C4-Pad2)*%
X136335000Y-77470000D02*
X135813800Y-77470000D01*
X139510000Y-80645000D02*
X136335000Y-77470000D01*
%TO.N,Net-(C6-Pad1)*%
X146160000Y-81650000D02*
X146530000Y-81280000D01*
X146160000Y-84155000D02*
X146160000Y-81650000D01*
X145895000Y-81915000D02*
X146530000Y-81280000D01*
X144928070Y-81915000D02*
X145895000Y-81915000D01*
X144300000Y-81286930D02*
X144928070Y-81915000D01*
X144300000Y-81280000D02*
X144300000Y-81286930D01*
X143665000Y-80645000D02*
X144300000Y-81280000D01*
X141160000Y-80645000D02*
X143665000Y-80645000D01*
%TO.N,Net-(R2-Pad2)*%
X130185000Y-83830000D02*
X130175000Y-83820000D01*
X130185000Y-87630000D02*
X130185000Y-83830000D01*
%TO.N,Net-(C1-Pad1)*%
X143215000Y-87630000D02*
X140345000Y-87630000D01*
X143515000Y-87330000D02*
X143215000Y-87630000D01*
%TO.N,input*%
X146050000Y-87965000D02*
X150505000Y-87965000D01*
X145415000Y-87330000D02*
X146050000Y-87965000D01*
X145415000Y-90170000D02*
X145415000Y-87330000D01*
%TO.N,+3V3*%
X150840000Y-90170000D02*
X147065000Y-90170000D01*
X153045000Y-87965000D02*
X150840000Y-90170000D01*
%TO.N,GND*%
X159060000Y-91440000D02*
X162560000Y-91440000D01*
X155585000Y-87965000D02*
X159060000Y-91440000D01*
%TD*%
M02*
