%TF.GenerationSoftware,KiCad,Pcbnew,(6.0.4)*%
%TF.CreationDate,2022-04-21T21:48:53-10:00*%
%TF.ProjectId,filter_v2,66696c74-6572-45f7-9632-2e6b69636164,rev?*%
%TF.SameCoordinates,Original*%
%TF.FileFunction,Copper,L2,Bot*%
%TF.FilePolarity,Positive*%
%FSLAX46Y46*%
G04 Gerber Fmt 4.6, Leading zero omitted, Abs format (unit mm)*
G04 Created by KiCad (PCBNEW (6.0.4)) date 2022-04-21 21:48:53*
%MOMM*%
%LPD*%
G01*
G04 APERTURE LIST*
%TA.AperFunction,ComponentPad*%
%ADD10C,3.800000*%
%TD*%
%TA.AperFunction,ComponentPad*%
%ADD11C,1.600000*%
%TD*%
%TA.AperFunction,ComponentPad*%
%ADD12O,1.600000X1.600000*%
%TD*%
%TA.AperFunction,ComponentPad*%
%ADD13R,1.730000X2.030000*%
%TD*%
%TA.AperFunction,ComponentPad*%
%ADD14O,1.730000X2.030000*%
%TD*%
%TA.AperFunction,ViaPad*%
%ADD15C,0.800000*%
%TD*%
%TA.AperFunction,Conductor*%
%ADD16C,0.250000*%
%TD*%
G04 APERTURE END LIST*
D10*
%TO.P,H2,1,1*%
%TO.N,GND*%
X162560000Y-91440000D03*
%TD*%
%TO.P,H4,1,1*%
%TO.N,GND*%
X129540000Y-91440000D03*
%TD*%
%TO.P,H1,1,1*%
%TO.N,GND*%
X162560000Y-66040000D03*
%TD*%
D11*
%TO.P,R2,1*%
%TO.N,Net-(C1-Pad1)*%
X140345000Y-87630000D03*
D12*
%TO.P,R2,2*%
%TO.N,Net-(R2-Pad2)*%
X130185000Y-87630000D03*
%TD*%
D10*
%TO.P,H3,1,1*%
%TO.N,GND*%
X129540000Y-66040000D03*
%TD*%
D11*
%TO.P,R3,1*%
%TO.N,Net-(R8-Pad1)*%
X140335000Y-83820000D03*
D12*
%TO.P,R3,2*%
%TO.N,Net-(R2-Pad2)*%
X130175000Y-83820000D03*
%TD*%
D13*
%TO.P,J1,1,Pin_1*%
%TO.N,input*%
X150505000Y-87965000D03*
D14*
%TO.P,J1,2,Pin_2*%
%TO.N,+3V3*%
X153045000Y-87965000D03*
%TO.P,J1,3,Pin_3*%
%TO.N,GND*%
X155585000Y-87965000D03*
%TO.P,J1,4,Pin_4*%
%TO.N,output*%
X158125000Y-87965000D03*
%TD*%
D15*
%TO.N,Net-(C4-Pad2)*%
X141934733Y-75033673D03*
X137795000Y-81280000D03*
%TO.N,Net-(R7-Pad1)*%
X137795000Y-68490500D03*
X140344701Y-70574500D03*
%TO.N,ref*%
X146774511Y-68669511D03*
X146050000Y-71755000D03*
%TO.N,Net-(C5-Pad2)*%
X141041755Y-75636755D03*
X133985000Y-78105000D03*
%TO.N,Net-(R2-Pad2)*%
X132080000Y-81915000D03*
X132715000Y-77590989D03*
%TO.N,ref*%
X137795000Y-80010000D03*
X142240000Y-79375000D03*
%TO.N,+3V3*%
X148590000Y-74295000D03*
X140335000Y-74930000D03*
X142875000Y-69125500D03*
X145415000Y-67945000D03*
X153670000Y-74295000D03*
X151765000Y-86360000D03*
%TO.N,Net-(C7-Pad2)*%
X147302123Y-83142157D03*
X151859499Y-67783882D03*
X144763544Y-82620572D03*
%TO.N,Net-(C6-Pad2)*%
X144145000Y-80010000D03*
X153035000Y-69215000D03*
X142875000Y-82550000D03*
%TO.N,Net-(C11-Pad2)*%
X161920003Y-70845770D03*
X157144088Y-69458686D03*
%TO.N,Net-(C13-Pad2)*%
X160020000Y-79375000D03*
X153759500Y-76745500D03*
%TO.N,output*%
X154305000Y-80010000D03*
X153035000Y-75565000D03*
%TD*%
D16*
%TO.N,Net-(C4-Pad2)*%
X141934733Y-76319787D02*
X141934733Y-75033673D01*
X139945386Y-76835000D02*
X141419520Y-76835000D01*
X137070489Y-79709897D02*
X139945386Y-76835000D01*
X141419520Y-76835000D02*
X141934733Y-76319787D01*
X137070489Y-80555489D02*
X137070489Y-79709897D01*
X137795000Y-81280000D02*
X137070489Y-80555489D01*
%TO.N,Net-(R7-Pad1)*%
X138260701Y-68490500D02*
X137795000Y-68490500D01*
X140344701Y-70574500D02*
X138260701Y-68490500D01*
%TO.N,ref*%
X146050000Y-69394022D02*
X146774511Y-68669511D01*
X146050000Y-71755000D02*
X146050000Y-69394022D01*
%TO.N,Net-(C5-Pad2)*%
X140335000Y-75654511D02*
X141023999Y-75654511D01*
X133985000Y-78105000D02*
X136435489Y-75654511D01*
X136435489Y-75654511D02*
X140335000Y-75654511D01*
X141023999Y-75654511D02*
X141041755Y-75636755D01*
%TO.N,Net-(R2-Pad2)*%
X132715000Y-81280000D02*
X132080000Y-81915000D01*
X132715000Y-77590989D02*
X132715000Y-81280000D01*
%TO.N,ref*%
X138430000Y-79375000D02*
X137795000Y-80010000D01*
X142240000Y-79375000D02*
X138430000Y-79375000D01*
%TO.N,+3V3*%
X140335000Y-74295000D02*
X148590000Y-74295000D01*
X140335000Y-71665500D02*
X140335000Y-74295000D01*
X140335000Y-74295000D02*
X140335000Y-74930000D01*
X142875000Y-69125500D02*
X140335000Y-71665500D01*
X144234500Y-69125500D02*
X142875000Y-69125500D01*
X145415000Y-67945000D02*
X144234500Y-69125500D01*
X153280386Y-74295000D02*
X153670000Y-74295000D01*
X151765000Y-86360000D02*
X151765000Y-75810386D01*
X151765000Y-75810386D02*
X153280386Y-74295000D01*
%TO.N,Net-(C7-Pad2)*%
X147320000Y-83124280D02*
X147302123Y-83142157D01*
X147320000Y-82550000D02*
X147320000Y-83124280D01*
X152628496Y-67783882D02*
X151859499Y-67783882D01*
X153759511Y-68914897D02*
X152628496Y-67783882D01*
X153759511Y-71031207D02*
X153759511Y-68914897D01*
X147320000Y-77470718D02*
X153759511Y-71031207D01*
X144763544Y-82620572D02*
X144834116Y-82550000D01*
X147320000Y-82550000D02*
X147320000Y-77470718D01*
X144834116Y-82550000D02*
X147320000Y-82550000D01*
%TO.N,Net-(C6-Pad2)*%
X144145000Y-80010000D02*
X153035000Y-71120000D01*
X153035000Y-71120000D02*
X153035000Y-69215000D01*
X142875000Y-81280000D02*
X144145000Y-80010000D01*
X142875000Y-82550000D02*
X142875000Y-81280000D01*
%TO.N,Net-(C11-Pad2)*%
X157144088Y-69458686D02*
X160532919Y-69458686D01*
X160532919Y-69458686D02*
X161920003Y-70845770D01*
%TO.N,Net-(C13-Pad2)*%
X153759500Y-76745500D02*
X157390500Y-76745500D01*
X157390500Y-76745500D02*
X160020000Y-79375000D01*
%TO.N,output*%
X153035000Y-75565000D02*
X153035000Y-78740000D01*
X153035000Y-78740000D02*
X154305000Y-80010000D01*
%TD*%
M02*
