%FSLAX45Y45*%
G04 Gerber Fmt 4.5, Leading zero omitted, Abs format (unit mm)*
G04 Created by KiCad (PCBNEW (6.0.4)) date 2022-04-21 21:49:42*
%MOMM*%
%LPD*%
G01*
G04 APERTURE LIST*
%TA.AperFunction,Profile*%
%ADD10C,0.100000*%
%TD*%
%ADD11C,0.200000*%
%ADD12C,0.040000*%
%ADD13C,0.080000*%
%ADD14C,0.102000*%
%ADD15C,0.220000*%
G04 APERTURE END LIST*
D10*
X12700000Y-9398000D02*
X12700000Y-6350000D01*
X12700000Y-6350000D02*
X16510000Y-6350000D01*
X16510000Y-6350000D02*
X16510000Y-9398000D01*
X16510000Y-9398000D02*
X12700000Y-9398000D01*
D11*
D12*
X13188000Y-8171500D02*
X13228000Y-8211500D01*
X13228000Y-8171500D02*
X13188000Y-8211500D01*
X13251500Y-7739099D02*
X13291500Y-7779099D01*
X13291500Y-7739099D02*
X13251500Y-7779099D01*
X13378500Y-7790500D02*
X13418500Y-7830500D01*
X13418500Y-7790500D02*
X13378500Y-7830500D01*
X13759500Y-6829050D02*
X13799500Y-6869050D01*
X13799500Y-6829050D02*
X13759500Y-6869050D01*
X13759500Y-7981000D02*
X13799500Y-8021000D01*
X13799500Y-7981000D02*
X13759500Y-8021000D01*
X13759500Y-8108000D02*
X13799500Y-8148000D01*
X13799500Y-8108000D02*
X13759500Y-8148000D01*
X14013500Y-7473000D02*
X14053500Y-7513000D01*
X14053500Y-7473000D02*
X14013500Y-7513000D01*
X14014470Y-7037450D02*
X14054470Y-7077450D01*
X14054470Y-7037450D02*
X14014470Y-7077450D01*
X14084175Y-7543675D02*
X14124175Y-7583675D01*
X14124175Y-7543675D02*
X14084175Y-7583675D01*
X14173473Y-7483367D02*
X14213473Y-7523367D01*
X14213473Y-7483367D02*
X14173473Y-7523367D01*
X14204000Y-7917500D02*
X14244000Y-7957500D01*
X14244000Y-7917500D02*
X14204000Y-7957500D01*
X14267500Y-6892550D02*
X14307500Y-6932550D01*
X14307500Y-6892550D02*
X14267500Y-6932550D01*
X14267500Y-8235000D02*
X14307500Y-8275000D01*
X14307500Y-8235000D02*
X14267500Y-8275000D01*
X14394500Y-7981000D02*
X14434500Y-8021000D01*
X14434500Y-7981000D02*
X14394500Y-8021000D01*
X14456354Y-8242057D02*
X14496354Y-8282057D01*
X14496354Y-8242057D02*
X14456354Y-8282057D01*
X14521500Y-6774500D02*
X14561500Y-6814500D01*
X14561500Y-6774500D02*
X14521500Y-6814500D01*
X14585000Y-7155500D02*
X14625000Y-7195500D01*
X14625000Y-7155500D02*
X14585000Y-7195500D01*
X14657451Y-6846951D02*
X14697451Y-6886951D01*
X14697451Y-6846951D02*
X14657451Y-6886951D01*
X14710212Y-8294216D02*
X14750212Y-8334216D01*
X14750212Y-8294216D02*
X14710212Y-8334216D01*
X14839000Y-7409500D02*
X14879000Y-7449500D01*
X14879000Y-7409500D02*
X14839000Y-7449500D01*
X15156500Y-8616000D02*
X15196500Y-8656000D01*
X15196500Y-8616000D02*
X15156500Y-8656000D01*
X15165950Y-6758388D02*
X15205950Y-6798388D01*
X15205950Y-6758388D02*
X15165950Y-6798388D01*
X15283500Y-6901500D02*
X15323500Y-6941500D01*
X15323500Y-6901500D02*
X15283500Y-6941500D01*
X15283500Y-7536500D02*
X15323500Y-7576500D01*
X15323500Y-7536500D02*
X15283500Y-7576500D01*
X15347000Y-7409500D02*
X15387000Y-7449500D01*
X15387000Y-7409500D02*
X15347000Y-7449500D01*
X15355950Y-7654550D02*
X15395950Y-7694550D01*
X15395950Y-7654550D02*
X15355950Y-7694550D01*
X15410500Y-7981000D02*
X15450500Y-8021000D01*
X15450500Y-7981000D02*
X15410500Y-8021000D01*
X15694409Y-6925869D02*
X15734409Y-6965869D01*
X15734409Y-6925869D02*
X15694409Y-6965869D01*
X15982000Y-7917500D02*
X16022000Y-7957500D01*
X16022000Y-7917500D02*
X15982000Y-7957500D01*
X16172000Y-7064577D02*
X16212000Y-7104577D01*
X16212000Y-7064577D02*
X16172000Y-7104577D01*
D13*
X13057500Y-8382000D02*
G75*
G03*
X13057500Y-8382000I-40000J0D01*
G01*
X13058500Y-8763000D02*
G75*
G03*
X13058500Y-8763000I-40000J0D01*
G01*
X14073500Y-8382000D02*
G75*
G03*
X14073500Y-8382000I-40000J0D01*
G01*
X14074500Y-8763000D02*
G75*
G03*
X14074500Y-8763000I-40000J0D01*
G01*
D14*
X15050500Y-8745500D02*
X15050500Y-8847500D01*
X14999500Y-8796500D02*
X15101500Y-8796500D01*
X15304500Y-8745500D02*
X15304500Y-8847500D01*
X15253500Y-8796500D02*
X15355500Y-8796500D01*
X15558500Y-8745500D02*
X15558500Y-8847500D01*
X15507500Y-8796500D02*
X15609500Y-8796500D01*
X15812500Y-8745500D02*
X15812500Y-8847500D01*
X15761500Y-8796500D02*
X15863500Y-8796500D01*
D15*
X13031782Y-6681782D02*
X13031782Y-6526217D01*
X12876217Y-6526217D01*
X12876217Y-6681782D01*
X13031782Y-6681782D01*
X13031782Y-9221783D02*
X13031782Y-9066218D01*
X12876217Y-9066218D01*
X12876217Y-9221783D01*
X13031782Y-9221783D01*
X16333782Y-6681782D02*
X16333782Y-6526217D01*
X16178217Y-6526217D01*
X16178217Y-6681782D01*
X16333782Y-6681782D01*
X16333782Y-9221783D02*
X16333782Y-9066218D01*
X16178217Y-9066218D01*
X16178217Y-9221783D01*
X16333782Y-9221783D01*
D11*
X12952619Y-9713476D02*
X12952619Y-9513476D01*
X13000238Y-9513476D01*
X13028809Y-9523000D01*
X13047857Y-9542048D01*
X13057381Y-9561095D01*
X13066905Y-9599190D01*
X13066905Y-9627762D01*
X13057381Y-9665857D01*
X13047857Y-9684905D01*
X13028809Y-9703952D01*
X13000238Y-9713476D01*
X12952619Y-9713476D01*
X13152619Y-9713476D02*
X13152619Y-9580143D01*
X13152619Y-9618238D02*
X13162143Y-9599190D01*
X13171667Y-9589667D01*
X13190714Y-9580143D01*
X13209762Y-9580143D01*
X13276428Y-9713476D02*
X13276428Y-9580143D01*
X13276428Y-9513476D02*
X13266905Y-9523000D01*
X13276428Y-9532524D01*
X13285952Y-9523000D01*
X13276428Y-9513476D01*
X13276428Y-9532524D01*
X13400238Y-9713476D02*
X13381190Y-9703952D01*
X13371667Y-9684905D01*
X13371667Y-9513476D01*
X13505000Y-9713476D02*
X13485952Y-9703952D01*
X13476428Y-9684905D01*
X13476428Y-9513476D01*
X13733571Y-9713476D02*
X13733571Y-9513476D01*
X13800238Y-9656333D01*
X13866905Y-9513476D01*
X13866905Y-9713476D01*
X14047857Y-9713476D02*
X14047857Y-9608714D01*
X14038333Y-9589667D01*
X14019286Y-9580143D01*
X13981190Y-9580143D01*
X13962143Y-9589667D01*
X14047857Y-9703952D02*
X14028809Y-9713476D01*
X13981190Y-9713476D01*
X13962143Y-9703952D01*
X13952619Y-9684905D01*
X13952619Y-9665857D01*
X13962143Y-9646810D01*
X13981190Y-9637286D01*
X14028809Y-9637286D01*
X14047857Y-9627762D01*
X14143095Y-9580143D02*
X14143095Y-9780143D01*
X14143095Y-9589667D02*
X14162143Y-9580143D01*
X14200238Y-9580143D01*
X14219286Y-9589667D01*
X14228809Y-9599190D01*
X14238333Y-9618238D01*
X14238333Y-9675381D01*
X14228809Y-9694429D01*
X14219286Y-9703952D01*
X14200238Y-9713476D01*
X14162143Y-9713476D01*
X14143095Y-9703952D01*
X14324048Y-9694429D02*
X14333571Y-9703952D01*
X14324048Y-9713476D01*
X14314524Y-9703952D01*
X14324048Y-9694429D01*
X14324048Y-9713476D01*
X14324048Y-9589667D02*
X14333571Y-9599190D01*
X14324048Y-9608714D01*
X14314524Y-9599190D01*
X14324048Y-9589667D01*
X14324048Y-9608714D01*
D12*
X12655000Y-10023000D02*
X12695000Y-10063000D01*
X12695000Y-10023000D02*
X12655000Y-10063000D01*
D11*
X12990714Y-9933476D02*
X13009762Y-9933476D01*
X13028809Y-9943000D01*
X13038333Y-9952524D01*
X13047857Y-9971571D01*
X13057381Y-10009667D01*
X13057381Y-10057286D01*
X13047857Y-10095381D01*
X13038333Y-10114429D01*
X13028809Y-10123952D01*
X13009762Y-10133476D01*
X12990714Y-10133476D01*
X12971667Y-10123952D01*
X12962143Y-10114429D01*
X12952619Y-10095381D01*
X12943095Y-10057286D01*
X12943095Y-10009667D01*
X12952619Y-9971571D01*
X12962143Y-9952524D01*
X12971667Y-9943000D01*
X12990714Y-9933476D01*
X13143095Y-10114429D02*
X13152619Y-10123952D01*
X13143095Y-10133476D01*
X13133571Y-10123952D01*
X13143095Y-10114429D01*
X13143095Y-10133476D01*
X13324048Y-10000143D02*
X13324048Y-10133476D01*
X13276428Y-9923952D02*
X13228809Y-10066810D01*
X13352619Y-10066810D01*
X13466905Y-9933476D02*
X13485952Y-9933476D01*
X13505000Y-9943000D01*
X13514524Y-9952524D01*
X13524048Y-9971571D01*
X13533571Y-10009667D01*
X13533571Y-10057286D01*
X13524048Y-10095381D01*
X13514524Y-10114429D01*
X13505000Y-10123952D01*
X13485952Y-10133476D01*
X13466905Y-10133476D01*
X13447857Y-10123952D01*
X13438333Y-10114429D01*
X13428809Y-10095381D01*
X13419286Y-10057286D01*
X13419286Y-10009667D01*
X13428809Y-9971571D01*
X13438333Y-9952524D01*
X13447857Y-9943000D01*
X13466905Y-9933476D01*
X13657381Y-9933476D02*
X13676428Y-9933476D01*
X13695476Y-9943000D01*
X13705000Y-9952524D01*
X13714524Y-9971571D01*
X13724048Y-10009667D01*
X13724048Y-10057286D01*
X13714524Y-10095381D01*
X13705000Y-10114429D01*
X13695476Y-10123952D01*
X13676428Y-10133476D01*
X13657381Y-10133476D01*
X13638333Y-10123952D01*
X13628809Y-10114429D01*
X13619286Y-10095381D01*
X13609762Y-10057286D01*
X13609762Y-10009667D01*
X13619286Y-9971571D01*
X13628809Y-9952524D01*
X13638333Y-9943000D01*
X13657381Y-9933476D01*
X13809762Y-10133476D02*
X13809762Y-10000143D01*
X13809762Y-10019190D02*
X13819286Y-10009667D01*
X13838333Y-10000143D01*
X13866905Y-10000143D01*
X13885952Y-10009667D01*
X13895476Y-10028714D01*
X13895476Y-10133476D01*
X13895476Y-10028714D02*
X13905000Y-10009667D01*
X13924048Y-10000143D01*
X13952619Y-10000143D01*
X13971667Y-10009667D01*
X13981190Y-10028714D01*
X13981190Y-10133476D01*
X14076428Y-10133476D02*
X14076428Y-10000143D01*
X14076428Y-10019190D02*
X14085952Y-10009667D01*
X14105000Y-10000143D01*
X14133571Y-10000143D01*
X14152619Y-10009667D01*
X14162143Y-10028714D01*
X14162143Y-10133476D01*
X14162143Y-10028714D02*
X14171667Y-10009667D01*
X14190714Y-10000143D01*
X14219286Y-10000143D01*
X14238333Y-10009667D01*
X14247857Y-10028714D01*
X14247857Y-10133476D01*
X14638333Y-9923952D02*
X14466905Y-10181095D01*
X14895476Y-9933476D02*
X14914524Y-9933476D01*
X14933571Y-9943000D01*
X14943095Y-9952524D01*
X14952619Y-9971571D01*
X14962143Y-10009667D01*
X14962143Y-10057286D01*
X14952619Y-10095381D01*
X14943095Y-10114429D01*
X14933571Y-10123952D01*
X14914524Y-10133476D01*
X14895476Y-10133476D01*
X14876428Y-10123952D01*
X14866905Y-10114429D01*
X14857381Y-10095381D01*
X14847857Y-10057286D01*
X14847857Y-10009667D01*
X14857381Y-9971571D01*
X14866905Y-9952524D01*
X14876428Y-9943000D01*
X14895476Y-9933476D01*
X15047857Y-10114429D02*
X15057381Y-10123952D01*
X15047857Y-10133476D01*
X15038333Y-10123952D01*
X15047857Y-10114429D01*
X15047857Y-10133476D01*
X15181190Y-9933476D02*
X15200238Y-9933476D01*
X15219286Y-9943000D01*
X15228809Y-9952524D01*
X15238333Y-9971571D01*
X15247857Y-10009667D01*
X15247857Y-10057286D01*
X15238333Y-10095381D01*
X15228809Y-10114429D01*
X15219286Y-10123952D01*
X15200238Y-10133476D01*
X15181190Y-10133476D01*
X15162143Y-10123952D01*
X15152619Y-10114429D01*
X15143095Y-10095381D01*
X15133571Y-10057286D01*
X15133571Y-10009667D01*
X15143095Y-9971571D01*
X15152619Y-9952524D01*
X15162143Y-9943000D01*
X15181190Y-9933476D01*
X15438333Y-10133476D02*
X15324048Y-10133476D01*
X15381190Y-10133476D02*
X15381190Y-9933476D01*
X15362143Y-9962048D01*
X15343095Y-9981095D01*
X15324048Y-9990619D01*
X15619286Y-9933476D02*
X15524048Y-9933476D01*
X15514524Y-10028714D01*
X15524048Y-10019190D01*
X15543095Y-10009667D01*
X15590714Y-10009667D01*
X15609762Y-10019190D01*
X15619286Y-10028714D01*
X15628809Y-10047762D01*
X15628809Y-10095381D01*
X15619286Y-10114429D01*
X15609762Y-10123952D01*
X15590714Y-10133476D01*
X15543095Y-10133476D01*
X15524048Y-10123952D01*
X15514524Y-10114429D01*
X15695476Y-9933476D02*
X15828809Y-9933476D01*
X15743095Y-10133476D01*
X15895476Y-9933476D02*
X15895476Y-9971571D01*
X15971667Y-9933476D02*
X15971667Y-9971571D01*
X16266905Y-10209667D02*
X16257381Y-10200143D01*
X16238333Y-10171571D01*
X16228809Y-10152524D01*
X16219286Y-10123952D01*
X16209762Y-10076333D01*
X16209762Y-10038238D01*
X16219286Y-9990619D01*
X16228809Y-9962048D01*
X16238333Y-9943000D01*
X16257381Y-9914429D01*
X16266905Y-9904905D01*
X16324048Y-9933476D02*
X16447857Y-9933476D01*
X16381190Y-10009667D01*
X16409762Y-10009667D01*
X16428809Y-10019190D01*
X16438333Y-10028714D01*
X16447857Y-10047762D01*
X16447857Y-10095381D01*
X16438333Y-10114429D01*
X16428809Y-10123952D01*
X16409762Y-10133476D01*
X16352619Y-10133476D01*
X16333571Y-10123952D01*
X16324048Y-10114429D01*
X16571667Y-9933476D02*
X16590714Y-9933476D01*
X16609762Y-9943000D01*
X16619286Y-9952524D01*
X16628809Y-9971571D01*
X16638333Y-10009667D01*
X16638333Y-10057286D01*
X16628809Y-10095381D01*
X16619286Y-10114429D01*
X16609762Y-10123952D01*
X16590714Y-10133476D01*
X16571667Y-10133476D01*
X16552619Y-10123952D01*
X16543095Y-10114429D01*
X16533571Y-10095381D01*
X16524048Y-10057286D01*
X16524048Y-10009667D01*
X16533571Y-9971571D01*
X16543095Y-9952524D01*
X16552619Y-9943000D01*
X16571667Y-9933476D01*
X16876429Y-10133476D02*
X16876429Y-9933476D01*
X16962143Y-10133476D02*
X16962143Y-10028714D01*
X16952619Y-10009667D01*
X16933571Y-10000143D01*
X16905000Y-10000143D01*
X16885952Y-10009667D01*
X16876429Y-10019190D01*
X17085952Y-10133476D02*
X17066905Y-10123952D01*
X17057381Y-10114429D01*
X17047857Y-10095381D01*
X17047857Y-10038238D01*
X17057381Y-10019190D01*
X17066905Y-10009667D01*
X17085952Y-10000143D01*
X17114524Y-10000143D01*
X17133571Y-10009667D01*
X17143095Y-10019190D01*
X17152619Y-10038238D01*
X17152619Y-10095381D01*
X17143095Y-10114429D01*
X17133571Y-10123952D01*
X17114524Y-10133476D01*
X17085952Y-10133476D01*
X17266905Y-10133476D02*
X17247857Y-10123952D01*
X17238333Y-10104905D01*
X17238333Y-9933476D01*
X17419286Y-10123952D02*
X17400238Y-10133476D01*
X17362143Y-10133476D01*
X17343095Y-10123952D01*
X17333571Y-10104905D01*
X17333571Y-10028714D01*
X17343095Y-10009667D01*
X17362143Y-10000143D01*
X17400238Y-10000143D01*
X17419286Y-10009667D01*
X17428810Y-10028714D01*
X17428810Y-10047762D01*
X17333571Y-10066810D01*
X17505000Y-10123952D02*
X17524048Y-10133476D01*
X17562143Y-10133476D01*
X17581190Y-10123952D01*
X17590714Y-10104905D01*
X17590714Y-10095381D01*
X17581190Y-10076333D01*
X17562143Y-10066810D01*
X17533571Y-10066810D01*
X17514524Y-10057286D01*
X17505000Y-10038238D01*
X17505000Y-10028714D01*
X17514524Y-10009667D01*
X17533571Y-10000143D01*
X17562143Y-10000143D01*
X17581190Y-10009667D01*
X17657381Y-10209667D02*
X17666905Y-10200143D01*
X17685952Y-10171571D01*
X17695476Y-10152524D01*
X17705000Y-10123952D01*
X17714524Y-10076333D01*
X17714524Y-10038238D01*
X17705000Y-9990619D01*
X17695476Y-9962048D01*
X17685952Y-9943000D01*
X17666905Y-9914429D01*
X17657381Y-9904905D01*
D13*
X12695000Y-10307000D02*
G75*
G03*
X12695000Y-10307000I-40000J0D01*
G01*
D11*
X12990714Y-10197476D02*
X13009762Y-10197476D01*
X13028809Y-10207000D01*
X13038333Y-10216524D01*
X13047857Y-10235571D01*
X13057381Y-10273667D01*
X13057381Y-10321286D01*
X13047857Y-10359381D01*
X13038333Y-10378429D01*
X13028809Y-10387952D01*
X13009762Y-10397476D01*
X12990714Y-10397476D01*
X12971667Y-10387952D01*
X12962143Y-10378429D01*
X12952619Y-10359381D01*
X12943095Y-10321286D01*
X12943095Y-10273667D01*
X12952619Y-10235571D01*
X12962143Y-10216524D01*
X12971667Y-10207000D01*
X12990714Y-10197476D01*
X13143095Y-10378429D02*
X13152619Y-10387952D01*
X13143095Y-10397476D01*
X13133571Y-10387952D01*
X13143095Y-10378429D01*
X13143095Y-10397476D01*
X13266905Y-10283190D02*
X13247857Y-10273667D01*
X13238333Y-10264143D01*
X13228809Y-10245095D01*
X13228809Y-10235571D01*
X13238333Y-10216524D01*
X13247857Y-10207000D01*
X13266905Y-10197476D01*
X13305000Y-10197476D01*
X13324048Y-10207000D01*
X13333571Y-10216524D01*
X13343095Y-10235571D01*
X13343095Y-10245095D01*
X13333571Y-10264143D01*
X13324048Y-10273667D01*
X13305000Y-10283190D01*
X13266905Y-10283190D01*
X13247857Y-10292714D01*
X13238333Y-10302238D01*
X13228809Y-10321286D01*
X13228809Y-10359381D01*
X13238333Y-10378429D01*
X13247857Y-10387952D01*
X13266905Y-10397476D01*
X13305000Y-10397476D01*
X13324048Y-10387952D01*
X13333571Y-10378429D01*
X13343095Y-10359381D01*
X13343095Y-10321286D01*
X13333571Y-10302238D01*
X13324048Y-10292714D01*
X13305000Y-10283190D01*
X13466905Y-10197476D02*
X13485952Y-10197476D01*
X13505000Y-10207000D01*
X13514524Y-10216524D01*
X13524048Y-10235571D01*
X13533571Y-10273667D01*
X13533571Y-10321286D01*
X13524048Y-10359381D01*
X13514524Y-10378429D01*
X13505000Y-10387952D01*
X13485952Y-10397476D01*
X13466905Y-10397476D01*
X13447857Y-10387952D01*
X13438333Y-10378429D01*
X13428809Y-10359381D01*
X13419286Y-10321286D01*
X13419286Y-10273667D01*
X13428809Y-10235571D01*
X13438333Y-10216524D01*
X13447857Y-10207000D01*
X13466905Y-10197476D01*
X13657381Y-10197476D02*
X13676428Y-10197476D01*
X13695476Y-10207000D01*
X13705000Y-10216524D01*
X13714524Y-10235571D01*
X13724048Y-10273667D01*
X13724048Y-10321286D01*
X13714524Y-10359381D01*
X13705000Y-10378429D01*
X13695476Y-10387952D01*
X13676428Y-10397476D01*
X13657381Y-10397476D01*
X13638333Y-10387952D01*
X13628809Y-10378429D01*
X13619286Y-10359381D01*
X13609762Y-10321286D01*
X13609762Y-10273667D01*
X13619286Y-10235571D01*
X13628809Y-10216524D01*
X13638333Y-10207000D01*
X13657381Y-10197476D01*
X13809762Y-10397476D02*
X13809762Y-10264143D01*
X13809762Y-10283190D02*
X13819286Y-10273667D01*
X13838333Y-10264143D01*
X13866905Y-10264143D01*
X13885952Y-10273667D01*
X13895476Y-10292714D01*
X13895476Y-10397476D01*
X13895476Y-10292714D02*
X13905000Y-10273667D01*
X13924048Y-10264143D01*
X13952619Y-10264143D01*
X13971667Y-10273667D01*
X13981190Y-10292714D01*
X13981190Y-10397476D01*
X14076428Y-10397476D02*
X14076428Y-10264143D01*
X14076428Y-10283190D02*
X14085952Y-10273667D01*
X14105000Y-10264143D01*
X14133571Y-10264143D01*
X14152619Y-10273667D01*
X14162143Y-10292714D01*
X14162143Y-10397476D01*
X14162143Y-10292714D02*
X14171667Y-10273667D01*
X14190714Y-10264143D01*
X14219286Y-10264143D01*
X14238333Y-10273667D01*
X14247857Y-10292714D01*
X14247857Y-10397476D01*
X14638333Y-10187952D02*
X14466905Y-10445095D01*
X14895476Y-10197476D02*
X14914524Y-10197476D01*
X14933571Y-10207000D01*
X14943095Y-10216524D01*
X14952619Y-10235571D01*
X14962143Y-10273667D01*
X14962143Y-10321286D01*
X14952619Y-10359381D01*
X14943095Y-10378429D01*
X14933571Y-10387952D01*
X14914524Y-10397476D01*
X14895476Y-10397476D01*
X14876428Y-10387952D01*
X14866905Y-10378429D01*
X14857381Y-10359381D01*
X14847857Y-10321286D01*
X14847857Y-10273667D01*
X14857381Y-10235571D01*
X14866905Y-10216524D01*
X14876428Y-10207000D01*
X14895476Y-10197476D01*
X15047857Y-10378429D02*
X15057381Y-10387952D01*
X15047857Y-10397476D01*
X15038333Y-10387952D01*
X15047857Y-10378429D01*
X15047857Y-10397476D01*
X15181190Y-10197476D02*
X15200238Y-10197476D01*
X15219286Y-10207000D01*
X15228809Y-10216524D01*
X15238333Y-10235571D01*
X15247857Y-10273667D01*
X15247857Y-10321286D01*
X15238333Y-10359381D01*
X15228809Y-10378429D01*
X15219286Y-10387952D01*
X15200238Y-10397476D01*
X15181190Y-10397476D01*
X15162143Y-10387952D01*
X15152619Y-10378429D01*
X15143095Y-10359381D01*
X15133571Y-10321286D01*
X15133571Y-10273667D01*
X15143095Y-10235571D01*
X15152619Y-10216524D01*
X15162143Y-10207000D01*
X15181190Y-10197476D01*
X15314524Y-10197476D02*
X15438333Y-10197476D01*
X15371667Y-10273667D01*
X15400238Y-10273667D01*
X15419286Y-10283190D01*
X15428809Y-10292714D01*
X15438333Y-10311762D01*
X15438333Y-10359381D01*
X15428809Y-10378429D01*
X15419286Y-10387952D01*
X15400238Y-10397476D01*
X15343095Y-10397476D01*
X15324048Y-10387952D01*
X15314524Y-10378429D01*
X15628809Y-10397476D02*
X15514524Y-10397476D01*
X15571667Y-10397476D02*
X15571667Y-10197476D01*
X15552619Y-10226048D01*
X15533571Y-10245095D01*
X15514524Y-10254619D01*
X15809762Y-10197476D02*
X15714524Y-10197476D01*
X15705000Y-10292714D01*
X15714524Y-10283190D01*
X15733571Y-10273667D01*
X15781190Y-10273667D01*
X15800238Y-10283190D01*
X15809762Y-10292714D01*
X15819286Y-10311762D01*
X15819286Y-10359381D01*
X15809762Y-10378429D01*
X15800238Y-10387952D01*
X15781190Y-10397476D01*
X15733571Y-10397476D01*
X15714524Y-10387952D01*
X15705000Y-10378429D01*
X15895476Y-10197476D02*
X15895476Y-10235571D01*
X15971667Y-10197476D02*
X15971667Y-10235571D01*
X16266905Y-10473667D02*
X16257381Y-10464143D01*
X16238333Y-10435571D01*
X16228809Y-10416524D01*
X16219286Y-10387952D01*
X16209762Y-10340333D01*
X16209762Y-10302238D01*
X16219286Y-10254619D01*
X16228809Y-10226048D01*
X16238333Y-10207000D01*
X16257381Y-10178429D01*
X16266905Y-10168905D01*
X16428809Y-10264143D02*
X16428809Y-10397476D01*
X16381190Y-10187952D02*
X16333571Y-10330810D01*
X16457381Y-10330810D01*
X16685952Y-10397476D02*
X16685952Y-10197476D01*
X16771667Y-10397476D02*
X16771667Y-10292714D01*
X16762143Y-10273667D01*
X16743095Y-10264143D01*
X16714524Y-10264143D01*
X16695476Y-10273667D01*
X16685952Y-10283190D01*
X16895476Y-10397476D02*
X16876429Y-10387952D01*
X16866905Y-10378429D01*
X16857381Y-10359381D01*
X16857381Y-10302238D01*
X16866905Y-10283190D01*
X16876429Y-10273667D01*
X16895476Y-10264143D01*
X16924048Y-10264143D01*
X16943095Y-10273667D01*
X16952619Y-10283190D01*
X16962143Y-10302238D01*
X16962143Y-10359381D01*
X16952619Y-10378429D01*
X16943095Y-10387952D01*
X16924048Y-10397476D01*
X16895476Y-10397476D01*
X17076429Y-10397476D02*
X17057381Y-10387952D01*
X17047857Y-10368905D01*
X17047857Y-10197476D01*
X17228810Y-10387952D02*
X17209762Y-10397476D01*
X17171667Y-10397476D01*
X17152619Y-10387952D01*
X17143095Y-10368905D01*
X17143095Y-10292714D01*
X17152619Y-10273667D01*
X17171667Y-10264143D01*
X17209762Y-10264143D01*
X17228810Y-10273667D01*
X17238333Y-10292714D01*
X17238333Y-10311762D01*
X17143095Y-10330810D01*
X17314524Y-10387952D02*
X17333571Y-10397476D01*
X17371667Y-10397476D01*
X17390714Y-10387952D01*
X17400238Y-10368905D01*
X17400238Y-10359381D01*
X17390714Y-10340333D01*
X17371667Y-10330810D01*
X17343095Y-10330810D01*
X17324048Y-10321286D01*
X17314524Y-10302238D01*
X17314524Y-10292714D01*
X17324048Y-10273667D01*
X17343095Y-10264143D01*
X17371667Y-10264143D01*
X17390714Y-10273667D01*
X17466905Y-10473667D02*
X17476429Y-10464143D01*
X17495476Y-10435571D01*
X17505000Y-10416524D01*
X17514524Y-10387952D01*
X17524048Y-10340333D01*
X17524048Y-10302238D01*
X17514524Y-10254619D01*
X17505000Y-10226048D01*
X17495476Y-10207000D01*
X17476429Y-10178429D01*
X17466905Y-10168905D01*
D14*
X12644000Y-10520000D02*
X12644000Y-10622000D01*
X12593000Y-10571000D02*
X12695000Y-10571000D01*
D11*
X13057381Y-10661476D02*
X12943095Y-10661476D01*
X13000238Y-10661476D02*
X13000238Y-10461476D01*
X12981190Y-10490048D01*
X12962143Y-10509095D01*
X12943095Y-10518619D01*
X13143095Y-10642429D02*
X13152619Y-10651952D01*
X13143095Y-10661476D01*
X13133571Y-10651952D01*
X13143095Y-10642429D01*
X13143095Y-10661476D01*
X13276428Y-10461476D02*
X13295476Y-10461476D01*
X13314524Y-10471000D01*
X13324048Y-10480524D01*
X13333571Y-10499571D01*
X13343095Y-10537667D01*
X13343095Y-10585286D01*
X13333571Y-10623381D01*
X13324048Y-10642429D01*
X13314524Y-10651952D01*
X13295476Y-10661476D01*
X13276428Y-10661476D01*
X13257381Y-10651952D01*
X13247857Y-10642429D01*
X13238333Y-10623381D01*
X13228809Y-10585286D01*
X13228809Y-10537667D01*
X13238333Y-10499571D01*
X13247857Y-10480524D01*
X13257381Y-10471000D01*
X13276428Y-10461476D01*
X13419286Y-10480524D02*
X13428809Y-10471000D01*
X13447857Y-10461476D01*
X13495476Y-10461476D01*
X13514524Y-10471000D01*
X13524048Y-10480524D01*
X13533571Y-10499571D01*
X13533571Y-10518619D01*
X13524048Y-10547190D01*
X13409762Y-10661476D01*
X13533571Y-10661476D01*
X13657381Y-10461476D02*
X13676428Y-10461476D01*
X13695476Y-10471000D01*
X13705000Y-10480524D01*
X13714524Y-10499571D01*
X13724048Y-10537667D01*
X13724048Y-10585286D01*
X13714524Y-10623381D01*
X13705000Y-10642429D01*
X13695476Y-10651952D01*
X13676428Y-10661476D01*
X13657381Y-10661476D01*
X13638333Y-10651952D01*
X13628809Y-10642429D01*
X13619286Y-10623381D01*
X13609762Y-10585286D01*
X13609762Y-10537667D01*
X13619286Y-10499571D01*
X13628809Y-10480524D01*
X13638333Y-10471000D01*
X13657381Y-10461476D01*
X13809762Y-10661476D02*
X13809762Y-10528143D01*
X13809762Y-10547190D02*
X13819286Y-10537667D01*
X13838333Y-10528143D01*
X13866905Y-10528143D01*
X13885952Y-10537667D01*
X13895476Y-10556714D01*
X13895476Y-10661476D01*
X13895476Y-10556714D02*
X13905000Y-10537667D01*
X13924048Y-10528143D01*
X13952619Y-10528143D01*
X13971667Y-10537667D01*
X13981190Y-10556714D01*
X13981190Y-10661476D01*
X14076428Y-10661476D02*
X14076428Y-10528143D01*
X14076428Y-10547190D02*
X14085952Y-10537667D01*
X14105000Y-10528143D01*
X14133571Y-10528143D01*
X14152619Y-10537667D01*
X14162143Y-10556714D01*
X14162143Y-10661476D01*
X14162143Y-10556714D02*
X14171667Y-10537667D01*
X14190714Y-10528143D01*
X14219286Y-10528143D01*
X14238333Y-10537667D01*
X14247857Y-10556714D01*
X14247857Y-10661476D01*
X14638333Y-10451952D02*
X14466905Y-10709095D01*
X14895476Y-10461476D02*
X14914524Y-10461476D01*
X14933571Y-10471000D01*
X14943095Y-10480524D01*
X14952619Y-10499571D01*
X14962143Y-10537667D01*
X14962143Y-10585286D01*
X14952619Y-10623381D01*
X14943095Y-10642429D01*
X14933571Y-10651952D01*
X14914524Y-10661476D01*
X14895476Y-10661476D01*
X14876428Y-10651952D01*
X14866905Y-10642429D01*
X14857381Y-10623381D01*
X14847857Y-10585286D01*
X14847857Y-10537667D01*
X14857381Y-10499571D01*
X14866905Y-10480524D01*
X14876428Y-10471000D01*
X14895476Y-10461476D01*
X15047857Y-10642429D02*
X15057381Y-10651952D01*
X15047857Y-10661476D01*
X15038333Y-10651952D01*
X15047857Y-10642429D01*
X15047857Y-10661476D01*
X15181190Y-10461476D02*
X15200238Y-10461476D01*
X15219286Y-10471000D01*
X15228809Y-10480524D01*
X15238333Y-10499571D01*
X15247857Y-10537667D01*
X15247857Y-10585286D01*
X15238333Y-10623381D01*
X15228809Y-10642429D01*
X15219286Y-10651952D01*
X15200238Y-10661476D01*
X15181190Y-10661476D01*
X15162143Y-10651952D01*
X15152619Y-10642429D01*
X15143095Y-10623381D01*
X15133571Y-10585286D01*
X15133571Y-10537667D01*
X15143095Y-10499571D01*
X15152619Y-10480524D01*
X15162143Y-10471000D01*
X15181190Y-10461476D01*
X15419286Y-10528143D02*
X15419286Y-10661476D01*
X15371667Y-10451952D02*
X15324048Y-10594810D01*
X15447857Y-10594810D01*
X15562143Y-10461476D02*
X15581190Y-10461476D01*
X15600238Y-10471000D01*
X15609762Y-10480524D01*
X15619286Y-10499571D01*
X15628809Y-10537667D01*
X15628809Y-10585286D01*
X15619286Y-10623381D01*
X15609762Y-10642429D01*
X15600238Y-10651952D01*
X15581190Y-10661476D01*
X15562143Y-10661476D01*
X15543095Y-10651952D01*
X15533571Y-10642429D01*
X15524048Y-10623381D01*
X15514524Y-10585286D01*
X15514524Y-10537667D01*
X15524048Y-10499571D01*
X15533571Y-10480524D01*
X15543095Y-10471000D01*
X15562143Y-10461476D01*
X15705000Y-10480524D02*
X15714524Y-10471000D01*
X15733571Y-10461476D01*
X15781190Y-10461476D01*
X15800238Y-10471000D01*
X15809762Y-10480524D01*
X15819286Y-10499571D01*
X15819286Y-10518619D01*
X15809762Y-10547190D01*
X15695476Y-10661476D01*
X15819286Y-10661476D01*
X15895476Y-10461476D02*
X15895476Y-10499571D01*
X15971667Y-10461476D02*
X15971667Y-10499571D01*
X16266905Y-10737667D02*
X16257381Y-10728143D01*
X16238333Y-10699571D01*
X16228809Y-10680524D01*
X16219286Y-10651952D01*
X16209762Y-10604333D01*
X16209762Y-10566238D01*
X16219286Y-10518619D01*
X16228809Y-10490048D01*
X16238333Y-10471000D01*
X16257381Y-10442429D01*
X16266905Y-10432905D01*
X16428809Y-10528143D02*
X16428809Y-10661476D01*
X16381190Y-10451952D02*
X16333571Y-10594810D01*
X16457381Y-10594810D01*
X16685952Y-10661476D02*
X16685952Y-10461476D01*
X16771667Y-10661476D02*
X16771667Y-10556714D01*
X16762143Y-10537667D01*
X16743095Y-10528143D01*
X16714524Y-10528143D01*
X16695476Y-10537667D01*
X16685952Y-10547190D01*
X16895476Y-10661476D02*
X16876429Y-10651952D01*
X16866905Y-10642429D01*
X16857381Y-10623381D01*
X16857381Y-10566238D01*
X16866905Y-10547190D01*
X16876429Y-10537667D01*
X16895476Y-10528143D01*
X16924048Y-10528143D01*
X16943095Y-10537667D01*
X16952619Y-10547190D01*
X16962143Y-10566238D01*
X16962143Y-10623381D01*
X16952619Y-10642429D01*
X16943095Y-10651952D01*
X16924048Y-10661476D01*
X16895476Y-10661476D01*
X17076429Y-10661476D02*
X17057381Y-10651952D01*
X17047857Y-10632905D01*
X17047857Y-10461476D01*
X17228810Y-10651952D02*
X17209762Y-10661476D01*
X17171667Y-10661476D01*
X17152619Y-10651952D01*
X17143095Y-10632905D01*
X17143095Y-10556714D01*
X17152619Y-10537667D01*
X17171667Y-10528143D01*
X17209762Y-10528143D01*
X17228810Y-10537667D01*
X17238333Y-10556714D01*
X17238333Y-10575762D01*
X17143095Y-10594810D01*
X17314524Y-10651952D02*
X17333571Y-10661476D01*
X17371667Y-10661476D01*
X17390714Y-10651952D01*
X17400238Y-10632905D01*
X17400238Y-10623381D01*
X17390714Y-10604333D01*
X17371667Y-10594810D01*
X17343095Y-10594810D01*
X17324048Y-10585286D01*
X17314524Y-10566238D01*
X17314524Y-10556714D01*
X17324048Y-10537667D01*
X17343095Y-10528143D01*
X17371667Y-10528143D01*
X17390714Y-10537667D01*
X17466905Y-10737667D02*
X17476429Y-10728143D01*
X17495476Y-10699571D01*
X17505000Y-10680524D01*
X17514524Y-10651952D01*
X17524048Y-10604333D01*
X17524048Y-10566238D01*
X17514524Y-10518619D01*
X17505000Y-10490048D01*
X17495476Y-10471000D01*
X17476429Y-10442429D01*
X17466905Y-10432905D01*
X12665711Y-10905711D02*
X12665711Y-10764289D01*
X12524289Y-10764289D01*
X12524289Y-10905711D01*
X12665711Y-10905711D01*
X12943095Y-10744524D02*
X12952619Y-10735000D01*
X12971667Y-10725476D01*
X13019286Y-10725476D01*
X13038333Y-10735000D01*
X13047857Y-10744524D01*
X13057381Y-10763571D01*
X13057381Y-10782619D01*
X13047857Y-10811190D01*
X12933571Y-10925476D01*
X13057381Y-10925476D01*
X13143095Y-10906429D02*
X13152619Y-10915952D01*
X13143095Y-10925476D01*
X13133571Y-10915952D01*
X13143095Y-10906429D01*
X13143095Y-10925476D01*
X13228809Y-10744524D02*
X13238333Y-10735000D01*
X13257381Y-10725476D01*
X13305000Y-10725476D01*
X13324048Y-10735000D01*
X13333571Y-10744524D01*
X13343095Y-10763571D01*
X13343095Y-10782619D01*
X13333571Y-10811190D01*
X13219286Y-10925476D01*
X13343095Y-10925476D01*
X13466905Y-10725476D02*
X13485952Y-10725476D01*
X13505000Y-10735000D01*
X13514524Y-10744524D01*
X13524048Y-10763571D01*
X13533571Y-10801667D01*
X13533571Y-10849286D01*
X13524048Y-10887381D01*
X13514524Y-10906429D01*
X13505000Y-10915952D01*
X13485952Y-10925476D01*
X13466905Y-10925476D01*
X13447857Y-10915952D01*
X13438333Y-10906429D01*
X13428809Y-10887381D01*
X13419286Y-10849286D01*
X13419286Y-10801667D01*
X13428809Y-10763571D01*
X13438333Y-10744524D01*
X13447857Y-10735000D01*
X13466905Y-10725476D01*
X13657381Y-10725476D02*
X13676428Y-10725476D01*
X13695476Y-10735000D01*
X13705000Y-10744524D01*
X13714524Y-10763571D01*
X13724048Y-10801667D01*
X13724048Y-10849286D01*
X13714524Y-10887381D01*
X13705000Y-10906429D01*
X13695476Y-10915952D01*
X13676428Y-10925476D01*
X13657381Y-10925476D01*
X13638333Y-10915952D01*
X13628809Y-10906429D01*
X13619286Y-10887381D01*
X13609762Y-10849286D01*
X13609762Y-10801667D01*
X13619286Y-10763571D01*
X13628809Y-10744524D01*
X13638333Y-10735000D01*
X13657381Y-10725476D01*
X13809762Y-10925476D02*
X13809762Y-10792143D01*
X13809762Y-10811190D02*
X13819286Y-10801667D01*
X13838333Y-10792143D01*
X13866905Y-10792143D01*
X13885952Y-10801667D01*
X13895476Y-10820714D01*
X13895476Y-10925476D01*
X13895476Y-10820714D02*
X13905000Y-10801667D01*
X13924048Y-10792143D01*
X13952619Y-10792143D01*
X13971667Y-10801667D01*
X13981190Y-10820714D01*
X13981190Y-10925476D01*
X14076428Y-10925476D02*
X14076428Y-10792143D01*
X14076428Y-10811190D02*
X14085952Y-10801667D01*
X14105000Y-10792143D01*
X14133571Y-10792143D01*
X14152619Y-10801667D01*
X14162143Y-10820714D01*
X14162143Y-10925476D01*
X14162143Y-10820714D02*
X14171667Y-10801667D01*
X14190714Y-10792143D01*
X14219286Y-10792143D01*
X14238333Y-10801667D01*
X14247857Y-10820714D01*
X14247857Y-10925476D01*
X14638333Y-10715952D02*
X14466905Y-10973095D01*
X14895476Y-10725476D02*
X14914524Y-10725476D01*
X14933571Y-10735000D01*
X14943095Y-10744524D01*
X14952619Y-10763571D01*
X14962143Y-10801667D01*
X14962143Y-10849286D01*
X14952619Y-10887381D01*
X14943095Y-10906429D01*
X14933571Y-10915952D01*
X14914524Y-10925476D01*
X14895476Y-10925476D01*
X14876428Y-10915952D01*
X14866905Y-10906429D01*
X14857381Y-10887381D01*
X14847857Y-10849286D01*
X14847857Y-10801667D01*
X14857381Y-10763571D01*
X14866905Y-10744524D01*
X14876428Y-10735000D01*
X14895476Y-10725476D01*
X15047857Y-10906429D02*
X15057381Y-10915952D01*
X15047857Y-10925476D01*
X15038333Y-10915952D01*
X15047857Y-10906429D01*
X15047857Y-10925476D01*
X15181190Y-10725476D02*
X15200238Y-10725476D01*
X15219286Y-10735000D01*
X15228809Y-10744524D01*
X15238333Y-10763571D01*
X15247857Y-10801667D01*
X15247857Y-10849286D01*
X15238333Y-10887381D01*
X15228809Y-10906429D01*
X15219286Y-10915952D01*
X15200238Y-10925476D01*
X15181190Y-10925476D01*
X15162143Y-10915952D01*
X15152619Y-10906429D01*
X15143095Y-10887381D01*
X15133571Y-10849286D01*
X15133571Y-10801667D01*
X15143095Y-10763571D01*
X15152619Y-10744524D01*
X15162143Y-10735000D01*
X15181190Y-10725476D01*
X15362143Y-10811190D02*
X15343095Y-10801667D01*
X15333571Y-10792143D01*
X15324048Y-10773095D01*
X15324048Y-10763571D01*
X15333571Y-10744524D01*
X15343095Y-10735000D01*
X15362143Y-10725476D01*
X15400238Y-10725476D01*
X15419286Y-10735000D01*
X15428809Y-10744524D01*
X15438333Y-10763571D01*
X15438333Y-10773095D01*
X15428809Y-10792143D01*
X15419286Y-10801667D01*
X15400238Y-10811190D01*
X15362143Y-10811190D01*
X15343095Y-10820714D01*
X15333571Y-10830238D01*
X15324048Y-10849286D01*
X15324048Y-10887381D01*
X15333571Y-10906429D01*
X15343095Y-10915952D01*
X15362143Y-10925476D01*
X15400238Y-10925476D01*
X15419286Y-10915952D01*
X15428809Y-10906429D01*
X15438333Y-10887381D01*
X15438333Y-10849286D01*
X15428809Y-10830238D01*
X15419286Y-10820714D01*
X15400238Y-10811190D01*
X15609762Y-10725476D02*
X15571667Y-10725476D01*
X15552619Y-10735000D01*
X15543095Y-10744524D01*
X15524048Y-10773095D01*
X15514524Y-10811190D01*
X15514524Y-10887381D01*
X15524048Y-10906429D01*
X15533571Y-10915952D01*
X15552619Y-10925476D01*
X15590714Y-10925476D01*
X15609762Y-10915952D01*
X15619286Y-10906429D01*
X15628809Y-10887381D01*
X15628809Y-10839762D01*
X15619286Y-10820714D01*
X15609762Y-10811190D01*
X15590714Y-10801667D01*
X15552619Y-10801667D01*
X15533571Y-10811190D01*
X15524048Y-10820714D01*
X15514524Y-10839762D01*
X15800238Y-10725476D02*
X15762143Y-10725476D01*
X15743095Y-10735000D01*
X15733571Y-10744524D01*
X15714524Y-10773095D01*
X15705000Y-10811190D01*
X15705000Y-10887381D01*
X15714524Y-10906429D01*
X15724048Y-10915952D01*
X15743095Y-10925476D01*
X15781190Y-10925476D01*
X15800238Y-10915952D01*
X15809762Y-10906429D01*
X15819286Y-10887381D01*
X15819286Y-10839762D01*
X15809762Y-10820714D01*
X15800238Y-10811190D01*
X15781190Y-10801667D01*
X15743095Y-10801667D01*
X15724048Y-10811190D01*
X15714524Y-10820714D01*
X15705000Y-10839762D01*
X15895476Y-10725476D02*
X15895476Y-10763571D01*
X15971667Y-10725476D02*
X15971667Y-10763571D01*
X16266905Y-11001667D02*
X16257381Y-10992143D01*
X16238333Y-10963571D01*
X16228809Y-10944524D01*
X16219286Y-10915952D01*
X16209762Y-10868333D01*
X16209762Y-10830238D01*
X16219286Y-10782619D01*
X16228809Y-10754048D01*
X16238333Y-10735000D01*
X16257381Y-10706429D01*
X16266905Y-10696905D01*
X16428809Y-10792143D02*
X16428809Y-10925476D01*
X16381190Y-10715952D02*
X16333571Y-10858810D01*
X16457381Y-10858810D01*
X16685952Y-10925476D02*
X16685952Y-10725476D01*
X16771667Y-10925476D02*
X16771667Y-10820714D01*
X16762143Y-10801667D01*
X16743095Y-10792143D01*
X16714524Y-10792143D01*
X16695476Y-10801667D01*
X16685952Y-10811190D01*
X16895476Y-10925476D02*
X16876429Y-10915952D01*
X16866905Y-10906429D01*
X16857381Y-10887381D01*
X16857381Y-10830238D01*
X16866905Y-10811190D01*
X16876429Y-10801667D01*
X16895476Y-10792143D01*
X16924048Y-10792143D01*
X16943095Y-10801667D01*
X16952619Y-10811190D01*
X16962143Y-10830238D01*
X16962143Y-10887381D01*
X16952619Y-10906429D01*
X16943095Y-10915952D01*
X16924048Y-10925476D01*
X16895476Y-10925476D01*
X17076429Y-10925476D02*
X17057381Y-10915952D01*
X17047857Y-10896905D01*
X17047857Y-10725476D01*
X17228810Y-10915952D02*
X17209762Y-10925476D01*
X17171667Y-10925476D01*
X17152619Y-10915952D01*
X17143095Y-10896905D01*
X17143095Y-10820714D01*
X17152619Y-10801667D01*
X17171667Y-10792143D01*
X17209762Y-10792143D01*
X17228810Y-10801667D01*
X17238333Y-10820714D01*
X17238333Y-10839762D01*
X17143095Y-10858810D01*
X17314524Y-10915952D02*
X17333571Y-10925476D01*
X17371667Y-10925476D01*
X17390714Y-10915952D01*
X17400238Y-10896905D01*
X17400238Y-10887381D01*
X17390714Y-10868333D01*
X17371667Y-10858810D01*
X17343095Y-10858810D01*
X17324048Y-10849286D01*
X17314524Y-10830238D01*
X17314524Y-10820714D01*
X17324048Y-10801667D01*
X17343095Y-10792143D01*
X17371667Y-10792143D01*
X17390714Y-10801667D01*
X17466905Y-11001667D02*
X17476429Y-10992143D01*
X17495476Y-10963571D01*
X17505000Y-10944524D01*
X17514524Y-10915952D01*
X17524048Y-10868333D01*
X17524048Y-10830238D01*
X17514524Y-10782619D01*
X17505000Y-10754048D01*
X17495476Y-10735000D01*
X17476429Y-10706429D01*
X17466905Y-10696905D01*
M02*
