%TF.GenerationSoftware,KiCad,Pcbnew,(6.0.4)*%
%TF.CreationDate,2022-04-21T21:48:53-10:00*%
%TF.ProjectId,filter_v2,66696c74-6572-45f7-9632-2e6b69636164,rev?*%
%TF.SameCoordinates,Original*%
%TF.FileFunction,Legend,Top*%
%TF.FilePolarity,Positive*%
%FSLAX46Y46*%
G04 Gerber Fmt 4.6, Leading zero omitted, Abs format (unit mm)*
G04 Created by KiCad (PCBNEW (6.0.4)) date 2022-04-21 21:48:53*
%MOMM*%
%LPD*%
G01*
G04 APERTURE LIST*
G04 Aperture macros list*
%AMRoundRect*
0 Rectangle with rounded corners*
0 $1 Rounding radius*
0 $2 $3 $4 $5 $6 $7 $8 $9 X,Y pos of 4 corners*
0 Add a 4 corners polygon primitive as box body*
4,1,4,$2,$3,$4,$5,$6,$7,$8,$9,$2,$3,0*
0 Add four circle primitives for the rounded corners*
1,1,$1+$1,$2,$3*
1,1,$1+$1,$4,$5*
1,1,$1+$1,$6,$7*
1,1,$1+$1,$8,$9*
0 Add four rect primitives between the rounded corners*
20,1,$1+$1,$2,$3,$4,$5,0*
20,1,$1+$1,$4,$5,$6,$7,0*
20,1,$1+$1,$6,$7,$8,$9,0*
20,1,$1+$1,$8,$9,$2,$3,0*%
G04 Aperture macros list end*
%ADD10C,0.150000*%
%ADD11C,0.125000*%
%ADD12C,0.120000*%
%ADD13R,1.969999X0.558000*%
%ADD14R,1.258799X0.508000*%
%ADD15RoundRect,0.200000X-0.200000X-0.275000X0.200000X-0.275000X0.200000X0.275000X-0.200000X0.275000X0*%
%ADD16RoundRect,0.200000X0.200000X0.275000X-0.200000X0.275000X-0.200000X-0.275000X0.200000X-0.275000X0*%
%ADD17RoundRect,0.200000X0.275000X-0.200000X0.275000X0.200000X-0.275000X0.200000X-0.275000X-0.200000X0*%
%ADD18RoundRect,0.250000X-0.250000X-0.475000X0.250000X-0.475000X0.250000X0.475000X-0.250000X0.475000X0*%
%ADD19C,3.800000*%
%ADD20RoundRect,0.140000X-0.140000X-0.170000X0.140000X-0.170000X0.140000X0.170000X-0.140000X0.170000X0*%
%ADD21C,1.600000*%
%ADD22O,1.600000X1.600000*%
%ADD23RoundRect,0.140000X0.140000X0.170000X-0.140000X0.170000X-0.140000X-0.170000X0.140000X-0.170000X0*%
%ADD24RoundRect,0.250000X0.475000X-0.250000X0.475000X0.250000X-0.475000X0.250000X-0.475000X-0.250000X0*%
%ADD25C,1.100000*%
%ADD26R,1.730000X2.030000*%
%ADD27O,1.730000X2.030000*%
G04 APERTURE END LIST*
D10*
X157567380Y-84461904D02*
X158567380Y-84128571D01*
X157567380Y-83795238D01*
X157567380Y-83271428D02*
X157567380Y-83080952D01*
X157615000Y-82985714D01*
X157710238Y-82890476D01*
X157900714Y-82842857D01*
X158234047Y-82842857D01*
X158424523Y-82890476D01*
X158519761Y-82985714D01*
X158567380Y-83080952D01*
X158567380Y-83271428D01*
X158519761Y-83366666D01*
X158424523Y-83461904D01*
X158234047Y-83509523D01*
X157900714Y-83509523D01*
X157710238Y-83461904D01*
X157615000Y-83366666D01*
X157567380Y-83271428D01*
X157567380Y-82414285D02*
X158376904Y-82414285D01*
X158472142Y-82366666D01*
X158519761Y-82319047D01*
X158567380Y-82223809D01*
X158567380Y-82033333D01*
X158519761Y-81938095D01*
X158472142Y-81890476D01*
X158376904Y-81842857D01*
X157567380Y-81842857D01*
X157567380Y-81509523D02*
X157567380Y-80938095D01*
X158567380Y-81223809D02*
X157567380Y-81223809D01*
X152487380Y-84533333D02*
X153487380Y-84200000D01*
X152487380Y-83866666D01*
X153392142Y-82961904D02*
X153439761Y-83009523D01*
X153487380Y-83152380D01*
X153487380Y-83247619D01*
X153439761Y-83390476D01*
X153344523Y-83485714D01*
X153249285Y-83533333D01*
X153058809Y-83580952D01*
X152915952Y-83580952D01*
X152725476Y-83533333D01*
X152630238Y-83485714D01*
X152535000Y-83390476D01*
X152487380Y-83247619D01*
X152487380Y-83152380D01*
X152535000Y-83009523D01*
X152582619Y-82961904D01*
X153392142Y-81961904D02*
X153439761Y-82009523D01*
X153487380Y-82152380D01*
X153487380Y-82247619D01*
X153439761Y-82390476D01*
X153344523Y-82485714D01*
X153249285Y-82533333D01*
X153058809Y-82580952D01*
X152915952Y-82580952D01*
X152725476Y-82533333D01*
X152630238Y-82485714D01*
X152535000Y-82390476D01*
X152487380Y-82247619D01*
X152487380Y-82152380D01*
X152535000Y-82009523D01*
X152582619Y-81961904D01*
X155075000Y-83946904D02*
X155027380Y-84042142D01*
X155027380Y-84185000D01*
X155075000Y-84327857D01*
X155170238Y-84423095D01*
X155265476Y-84470714D01*
X155455952Y-84518333D01*
X155598809Y-84518333D01*
X155789285Y-84470714D01*
X155884523Y-84423095D01*
X155979761Y-84327857D01*
X156027380Y-84185000D01*
X156027380Y-84089761D01*
X155979761Y-83946904D01*
X155932142Y-83899285D01*
X155598809Y-83899285D01*
X155598809Y-84089761D01*
X156027380Y-83470714D02*
X155027380Y-83470714D01*
X156027380Y-82899285D01*
X155027380Y-82899285D01*
X156027380Y-82423095D02*
X155027380Y-82423095D01*
X155027380Y-82185000D01*
X155075000Y-82042142D01*
X155170238Y-81946904D01*
X155265476Y-81899285D01*
X155455952Y-81851666D01*
X155598809Y-81851666D01*
X155789285Y-81899285D01*
X155884523Y-81946904D01*
X155979761Y-82042142D01*
X156027380Y-82185000D01*
X156027380Y-82423095D01*
X149947380Y-84495238D02*
X150947380Y-84161904D01*
X149947380Y-83828571D01*
X150947380Y-83495238D02*
X149947380Y-83495238D01*
X150947380Y-83019047D02*
X149947380Y-83019047D01*
X150947380Y-82447619D01*
X149947380Y-82447619D01*
%TO.C,U4*%
X152273095Y-75652380D02*
X152273095Y-76461904D01*
X152320714Y-76557142D01*
X152368333Y-76604761D01*
X152463571Y-76652380D01*
X152654047Y-76652380D01*
X152749285Y-76604761D01*
X152796904Y-76557142D01*
X152844523Y-76461904D01*
X152844523Y-75652380D01*
X153749285Y-75985714D02*
X153749285Y-76652380D01*
X153511190Y-75604761D02*
X153273095Y-76319047D01*
X153892142Y-76319047D01*
X150317200Y-72046380D02*
X150317200Y-72284476D01*
X150079104Y-72189238D02*
X150317200Y-72284476D01*
X150555295Y-72189238D01*
X150174342Y-72474952D02*
X150317200Y-72284476D01*
X150460057Y-72474952D01*
X150317200Y-72046380D02*
X150317200Y-72284476D01*
X150079104Y-72189238D02*
X150317200Y-72284476D01*
X150555295Y-72189238D01*
X150174342Y-72474952D02*
X150317200Y-72284476D01*
X150460057Y-72474952D01*
%TO.C,U3*%
X152273095Y-67397380D02*
X152273095Y-68206904D01*
X152320714Y-68302142D01*
X152368333Y-68349761D01*
X152463571Y-68397380D01*
X152654047Y-68397380D01*
X152749285Y-68349761D01*
X152796904Y-68302142D01*
X152844523Y-68206904D01*
X152844523Y-67397380D01*
X153225476Y-67397380D02*
X153844523Y-67397380D01*
X153511190Y-67778333D01*
X153654047Y-67778333D01*
X153749285Y-67825952D01*
X153796904Y-67873571D01*
X153844523Y-67968809D01*
X153844523Y-68206904D01*
X153796904Y-68302142D01*
X153749285Y-68349761D01*
X153654047Y-68397380D01*
X153368333Y-68397380D01*
X153273095Y-68349761D01*
X153225476Y-68302142D01*
X150317200Y-63791380D02*
X150317200Y-64029476D01*
X150079104Y-63934238D02*
X150317200Y-64029476D01*
X150555295Y-63934238D01*
X150174342Y-64219952D02*
X150317200Y-64029476D01*
X150460057Y-64219952D01*
X150317200Y-63791380D02*
X150317200Y-64029476D01*
X150079104Y-63934238D02*
X150317200Y-64029476D01*
X150555295Y-63934238D01*
X150174342Y-64219952D02*
X150317200Y-64029476D01*
X150460057Y-64219952D01*
%TO.C,U2*%
X139573095Y-69302380D02*
X139573095Y-70111904D01*
X139620714Y-70207142D01*
X139668333Y-70254761D01*
X139763571Y-70302380D01*
X139954047Y-70302380D01*
X140049285Y-70254761D01*
X140096904Y-70207142D01*
X140144523Y-70111904D01*
X140144523Y-69302380D01*
X140573095Y-69397619D02*
X140620714Y-69350000D01*
X140715952Y-69302380D01*
X140954047Y-69302380D01*
X141049285Y-69350000D01*
X141096904Y-69397619D01*
X141144523Y-69492857D01*
X141144523Y-69588095D01*
X141096904Y-69730952D01*
X140525476Y-70302380D01*
X141144523Y-70302380D01*
X138861800Y-66701380D02*
X138861800Y-66939476D01*
X138623704Y-66844238D02*
X138861800Y-66939476D01*
X139099895Y-66844238D01*
X138718942Y-67129952D02*
X138861800Y-66939476D01*
X139004657Y-67129952D01*
X138861800Y-66701380D02*
X138861800Y-66939476D01*
X138623704Y-66844238D02*
X138861800Y-66939476D01*
X139099895Y-66844238D01*
X138718942Y-67129952D02*
X138861800Y-66939476D01*
X139004657Y-67129952D01*
%TO.C,U1*%
X132588095Y-77557380D02*
X132588095Y-78366904D01*
X132635714Y-78462142D01*
X132683333Y-78509761D01*
X132778571Y-78557380D01*
X132969047Y-78557380D01*
X133064285Y-78509761D01*
X133111904Y-78462142D01*
X133159523Y-78366904D01*
X133159523Y-77557380D01*
X134159523Y-78557380D02*
X133588095Y-78557380D01*
X133873809Y-78557380D02*
X133873809Y-77557380D01*
X133778571Y-77700238D01*
X133683333Y-77795476D01*
X133588095Y-77843095D01*
X130632200Y-73951380D02*
X130632200Y-74189476D01*
X130394104Y-74094238D02*
X130632200Y-74189476D01*
X130870295Y-74094238D01*
X130489342Y-74379952D02*
X130632200Y-74189476D01*
X130775057Y-74379952D01*
X130632200Y-73951380D02*
X130632200Y-74189476D01*
X130394104Y-74094238D02*
X130632200Y-74189476D01*
X130870295Y-74094238D01*
X130489342Y-74379952D02*
X130632200Y-74189476D01*
X130775057Y-74379952D01*
%TO.C,R19*%
X161927142Y-78732380D02*
X161593809Y-78256190D01*
X161355714Y-78732380D02*
X161355714Y-77732380D01*
X161736666Y-77732380D01*
X161831904Y-77780000D01*
X161879523Y-77827619D01*
X161927142Y-77922857D01*
X161927142Y-78065714D01*
X161879523Y-78160952D01*
X161831904Y-78208571D01*
X161736666Y-78256190D01*
X161355714Y-78256190D01*
X162879523Y-78732380D02*
X162308095Y-78732380D01*
X162593809Y-78732380D02*
X162593809Y-77732380D01*
X162498571Y-77875238D01*
X162403333Y-77970476D01*
X162308095Y-78018095D01*
X163355714Y-78732380D02*
X163546190Y-78732380D01*
X163641428Y-78684761D01*
X163689047Y-78637142D01*
X163784285Y-78494285D01*
X163831904Y-78303809D01*
X163831904Y-77922857D01*
X163784285Y-77827619D01*
X163736666Y-77780000D01*
X163641428Y-77732380D01*
X163450952Y-77732380D01*
X163355714Y-77780000D01*
X163308095Y-77827619D01*
X163260476Y-77922857D01*
X163260476Y-78160952D01*
X163308095Y-78256190D01*
X163355714Y-78303809D01*
X163450952Y-78351428D01*
X163641428Y-78351428D01*
X163736666Y-78303809D01*
X163784285Y-78256190D01*
X163831904Y-78160952D01*
%TO.C,R18*%
X161927142Y-72682380D02*
X161593809Y-72206190D01*
X161355714Y-72682380D02*
X161355714Y-71682380D01*
X161736666Y-71682380D01*
X161831904Y-71730000D01*
X161879523Y-71777619D01*
X161927142Y-71872857D01*
X161927142Y-72015714D01*
X161879523Y-72110952D01*
X161831904Y-72158571D01*
X161736666Y-72206190D01*
X161355714Y-72206190D01*
X162879523Y-72682380D02*
X162308095Y-72682380D01*
X162593809Y-72682380D02*
X162593809Y-71682380D01*
X162498571Y-71825238D01*
X162403333Y-71920476D01*
X162308095Y-71968095D01*
X163450952Y-72110952D02*
X163355714Y-72063333D01*
X163308095Y-72015714D01*
X163260476Y-71920476D01*
X163260476Y-71872857D01*
X163308095Y-71777619D01*
X163355714Y-71730000D01*
X163450952Y-71682380D01*
X163641428Y-71682380D01*
X163736666Y-71730000D01*
X163784285Y-71777619D01*
X163831904Y-71872857D01*
X163831904Y-71920476D01*
X163784285Y-72015714D01*
X163736666Y-72063333D01*
X163641428Y-72110952D01*
X163450952Y-72110952D01*
X163355714Y-72158571D01*
X163308095Y-72206190D01*
X163260476Y-72301428D01*
X163260476Y-72491904D01*
X163308095Y-72587142D01*
X163355714Y-72634761D01*
X163450952Y-72682380D01*
X163641428Y-72682380D01*
X163736666Y-72634761D01*
X163784285Y-72587142D01*
X163831904Y-72491904D01*
X163831904Y-72301428D01*
X163784285Y-72206190D01*
X163736666Y-72158571D01*
X163641428Y-72110952D01*
%TO.C,R17*%
X158742142Y-76827380D02*
X158408809Y-76351190D01*
X158170714Y-76827380D02*
X158170714Y-75827380D01*
X158551666Y-75827380D01*
X158646904Y-75875000D01*
X158694523Y-75922619D01*
X158742142Y-76017857D01*
X158742142Y-76160714D01*
X158694523Y-76255952D01*
X158646904Y-76303571D01*
X158551666Y-76351190D01*
X158170714Y-76351190D01*
X159694523Y-76827380D02*
X159123095Y-76827380D01*
X159408809Y-76827380D02*
X159408809Y-75827380D01*
X159313571Y-75970238D01*
X159218333Y-76065476D01*
X159123095Y-76113095D01*
X160027857Y-75827380D02*
X160694523Y-75827380D01*
X160265952Y-76827380D01*
%TO.C,R16*%
X158742142Y-73637380D02*
X158408809Y-73161190D01*
X158170714Y-73637380D02*
X158170714Y-72637380D01*
X158551666Y-72637380D01*
X158646904Y-72685000D01*
X158694523Y-72732619D01*
X158742142Y-72827857D01*
X158742142Y-72970714D01*
X158694523Y-73065952D01*
X158646904Y-73113571D01*
X158551666Y-73161190D01*
X158170714Y-73161190D01*
X159694523Y-73637380D02*
X159123095Y-73637380D01*
X159408809Y-73637380D02*
X159408809Y-72637380D01*
X159313571Y-72780238D01*
X159218333Y-72875476D01*
X159123095Y-72923095D01*
X160551666Y-72637380D02*
X160361190Y-72637380D01*
X160265952Y-72685000D01*
X160218333Y-72732619D01*
X160123095Y-72875476D01*
X160075476Y-73065952D01*
X160075476Y-73446904D01*
X160123095Y-73542142D01*
X160170714Y-73589761D01*
X160265952Y-73637380D01*
X160456428Y-73637380D01*
X160551666Y-73589761D01*
X160599285Y-73542142D01*
X160646904Y-73446904D01*
X160646904Y-73208809D01*
X160599285Y-73113571D01*
X160551666Y-73065952D01*
X160456428Y-73018333D01*
X160265952Y-73018333D01*
X160170714Y-73065952D01*
X160123095Y-73113571D01*
X160075476Y-73208809D01*
%TO.C,R15*%
X158742142Y-74287380D02*
X158408809Y-73811190D01*
X158170714Y-74287380D02*
X158170714Y-73287380D01*
X158551666Y-73287380D01*
X158646904Y-73335000D01*
X158694523Y-73382619D01*
X158742142Y-73477857D01*
X158742142Y-73620714D01*
X158694523Y-73715952D01*
X158646904Y-73763571D01*
X158551666Y-73811190D01*
X158170714Y-73811190D01*
X159694523Y-74287380D02*
X159123095Y-74287380D01*
X159408809Y-74287380D02*
X159408809Y-73287380D01*
X159313571Y-73430238D01*
X159218333Y-73525476D01*
X159123095Y-73573095D01*
X160599285Y-73287380D02*
X160123095Y-73287380D01*
X160075476Y-73763571D01*
X160123095Y-73715952D01*
X160218333Y-73668333D01*
X160456428Y-73668333D01*
X160551666Y-73715952D01*
X160599285Y-73763571D01*
X160646904Y-73858809D01*
X160646904Y-74096904D01*
X160599285Y-74192142D01*
X160551666Y-74239761D01*
X160456428Y-74287380D01*
X160218333Y-74287380D01*
X160123095Y-74239761D01*
X160075476Y-74192142D01*
%TO.C,R14*%
X158742142Y-68872380D02*
X158408809Y-68396190D01*
X158170714Y-68872380D02*
X158170714Y-67872380D01*
X158551666Y-67872380D01*
X158646904Y-67920000D01*
X158694523Y-67967619D01*
X158742142Y-68062857D01*
X158742142Y-68205714D01*
X158694523Y-68300952D01*
X158646904Y-68348571D01*
X158551666Y-68396190D01*
X158170714Y-68396190D01*
X159694523Y-68872380D02*
X159123095Y-68872380D01*
X159408809Y-68872380D02*
X159408809Y-67872380D01*
X159313571Y-68015238D01*
X159218333Y-68110476D01*
X159123095Y-68158095D01*
X160551666Y-68205714D02*
X160551666Y-68872380D01*
X160313571Y-67824761D02*
X160075476Y-68539047D01*
X160694523Y-68539047D01*
%TO.C,R13*%
X142867142Y-83177380D02*
X142533809Y-82701190D01*
X142295714Y-83177380D02*
X142295714Y-82177380D01*
X142676666Y-82177380D01*
X142771904Y-82225000D01*
X142819523Y-82272619D01*
X142867142Y-82367857D01*
X142867142Y-82510714D01*
X142819523Y-82605952D01*
X142771904Y-82653571D01*
X142676666Y-82701190D01*
X142295714Y-82701190D01*
X143819523Y-83177380D02*
X143248095Y-83177380D01*
X143533809Y-83177380D02*
X143533809Y-82177380D01*
X143438571Y-82320238D01*
X143343333Y-82415476D01*
X143248095Y-82463095D01*
X144152857Y-82177380D02*
X144771904Y-82177380D01*
X144438571Y-82558333D01*
X144581428Y-82558333D01*
X144676666Y-82605952D01*
X144724285Y-82653571D01*
X144771904Y-82748809D01*
X144771904Y-82986904D01*
X144724285Y-83082142D01*
X144676666Y-83129761D01*
X144581428Y-83177380D01*
X144295714Y-83177380D01*
X144200476Y-83129761D01*
X144152857Y-83082142D01*
%TO.C,R12*%
X142992142Y-74287380D02*
X142658809Y-73811190D01*
X142420714Y-74287380D02*
X142420714Y-73287380D01*
X142801666Y-73287380D01*
X142896904Y-73335000D01*
X142944523Y-73382619D01*
X142992142Y-73477857D01*
X142992142Y-73620714D01*
X142944523Y-73715952D01*
X142896904Y-73763571D01*
X142801666Y-73811190D01*
X142420714Y-73811190D01*
X143944523Y-74287380D02*
X143373095Y-74287380D01*
X143658809Y-74287380D02*
X143658809Y-73287380D01*
X143563571Y-73430238D01*
X143468333Y-73525476D01*
X143373095Y-73573095D01*
X144325476Y-73382619D02*
X144373095Y-73335000D01*
X144468333Y-73287380D01*
X144706428Y-73287380D01*
X144801666Y-73335000D01*
X144849285Y-73382619D01*
X144896904Y-73477857D01*
X144896904Y-73573095D01*
X144849285Y-73715952D01*
X144277857Y-74287380D01*
X144896904Y-74287380D01*
%TO.C,R11*%
X146342142Y-83177380D02*
X146008809Y-82701190D01*
X145770714Y-83177380D02*
X145770714Y-82177380D01*
X146151666Y-82177380D01*
X146246904Y-82225000D01*
X146294523Y-82272619D01*
X146342142Y-82367857D01*
X146342142Y-82510714D01*
X146294523Y-82605952D01*
X146246904Y-82653571D01*
X146151666Y-82701190D01*
X145770714Y-82701190D01*
X147294523Y-83177380D02*
X146723095Y-83177380D01*
X147008809Y-83177380D02*
X147008809Y-82177380D01*
X146913571Y-82320238D01*
X146818333Y-82415476D01*
X146723095Y-82463095D01*
X148246904Y-83177380D02*
X147675476Y-83177380D01*
X147961190Y-83177380D02*
X147961190Y-82177380D01*
X147865952Y-82320238D01*
X147770714Y-82415476D01*
X147675476Y-82463095D01*
%TO.C,R10*%
X142992142Y-76492380D02*
X142658809Y-76016190D01*
X142420714Y-76492380D02*
X142420714Y-75492380D01*
X142801666Y-75492380D01*
X142896904Y-75540000D01*
X142944523Y-75587619D01*
X142992142Y-75682857D01*
X142992142Y-75825714D01*
X142944523Y-75920952D01*
X142896904Y-75968571D01*
X142801666Y-76016190D01*
X142420714Y-76016190D01*
X143944523Y-76492380D02*
X143373095Y-76492380D01*
X143658809Y-76492380D02*
X143658809Y-75492380D01*
X143563571Y-75635238D01*
X143468333Y-75730476D01*
X143373095Y-75778095D01*
X144563571Y-75492380D02*
X144658809Y-75492380D01*
X144754047Y-75540000D01*
X144801666Y-75587619D01*
X144849285Y-75682857D01*
X144896904Y-75873333D01*
X144896904Y-76111428D01*
X144849285Y-76301904D01*
X144801666Y-76397142D01*
X144754047Y-76444761D01*
X144658809Y-76492380D01*
X144563571Y-76492380D01*
X144468333Y-76444761D01*
X144420714Y-76397142D01*
X144373095Y-76301904D01*
X144325476Y-76111428D01*
X144325476Y-75873333D01*
X144373095Y-75682857D01*
X144420714Y-75587619D01*
X144468333Y-75540000D01*
X144563571Y-75492380D01*
%TO.C,R9*%
X140168333Y-79667380D02*
X139835000Y-79191190D01*
X139596904Y-79667380D02*
X139596904Y-78667380D01*
X139977857Y-78667380D01*
X140073095Y-78715000D01*
X140120714Y-78762619D01*
X140168333Y-78857857D01*
X140168333Y-79000714D01*
X140120714Y-79095952D01*
X140073095Y-79143571D01*
X139977857Y-79191190D01*
X139596904Y-79191190D01*
X140644523Y-79667380D02*
X140835000Y-79667380D01*
X140930238Y-79619761D01*
X140977857Y-79572142D01*
X141073095Y-79429285D01*
X141120714Y-79238809D01*
X141120714Y-78857857D01*
X141073095Y-78762619D01*
X141025476Y-78715000D01*
X140930238Y-78667380D01*
X140739761Y-78667380D01*
X140644523Y-78715000D01*
X140596904Y-78762619D01*
X140549285Y-78857857D01*
X140549285Y-79095952D01*
X140596904Y-79191190D01*
X140644523Y-79238809D01*
X140739761Y-79286428D01*
X140930238Y-79286428D01*
X141025476Y-79238809D01*
X141073095Y-79191190D01*
X141120714Y-79095952D01*
%TO.C,R8*%
X139533333Y-76492380D02*
X139200000Y-76016190D01*
X138961904Y-76492380D02*
X138961904Y-75492380D01*
X139342857Y-75492380D01*
X139438095Y-75540000D01*
X139485714Y-75587619D01*
X139533333Y-75682857D01*
X139533333Y-75825714D01*
X139485714Y-75920952D01*
X139438095Y-75968571D01*
X139342857Y-76016190D01*
X138961904Y-76016190D01*
X140104761Y-75920952D02*
X140009523Y-75873333D01*
X139961904Y-75825714D01*
X139914285Y-75730476D01*
X139914285Y-75682857D01*
X139961904Y-75587619D01*
X140009523Y-75540000D01*
X140104761Y-75492380D01*
X140295238Y-75492380D01*
X140390476Y-75540000D01*
X140438095Y-75587619D01*
X140485714Y-75682857D01*
X140485714Y-75730476D01*
X140438095Y-75825714D01*
X140390476Y-75873333D01*
X140295238Y-75920952D01*
X140104761Y-75920952D01*
X140009523Y-75968571D01*
X139961904Y-76016190D01*
X139914285Y-76111428D01*
X139914285Y-76301904D01*
X139961904Y-76397142D01*
X140009523Y-76444761D01*
X140104761Y-76492380D01*
X140295238Y-76492380D01*
X140390476Y-76444761D01*
X140438095Y-76397142D01*
X140485714Y-76301904D01*
X140485714Y-76111428D01*
X140438095Y-76016190D01*
X140390476Y-75968571D01*
X140295238Y-75920952D01*
%TO.C,R7*%
X136182380Y-67476666D02*
X135706190Y-67810000D01*
X136182380Y-68048095D02*
X135182380Y-68048095D01*
X135182380Y-67667142D01*
X135230000Y-67571904D01*
X135277619Y-67524285D01*
X135372857Y-67476666D01*
X135515714Y-67476666D01*
X135610952Y-67524285D01*
X135658571Y-67571904D01*
X135706190Y-67667142D01*
X135706190Y-68048095D01*
X135182380Y-67143333D02*
X135182380Y-66476666D01*
X136182380Y-66905238D01*
%TO.C,R6*%
X134453333Y-66967380D02*
X134120000Y-66491190D01*
X133881904Y-66967380D02*
X133881904Y-65967380D01*
X134262857Y-65967380D01*
X134358095Y-66015000D01*
X134405714Y-66062619D01*
X134453333Y-66157857D01*
X134453333Y-66300714D01*
X134405714Y-66395952D01*
X134358095Y-66443571D01*
X134262857Y-66491190D01*
X133881904Y-66491190D01*
X135310476Y-65967380D02*
X135120000Y-65967380D01*
X135024761Y-66015000D01*
X134977142Y-66062619D01*
X134881904Y-66205476D01*
X134834285Y-66395952D01*
X134834285Y-66776904D01*
X134881904Y-66872142D01*
X134929523Y-66919761D01*
X135024761Y-66967380D01*
X135215238Y-66967380D01*
X135310476Y-66919761D01*
X135358095Y-66872142D01*
X135405714Y-66776904D01*
X135405714Y-66538809D01*
X135358095Y-66443571D01*
X135310476Y-66395952D01*
X135215238Y-66348333D01*
X135024761Y-66348333D01*
X134929523Y-66395952D01*
X134881904Y-66443571D01*
X134834285Y-66538809D01*
%TO.C,R5*%
X134453333Y-68872380D02*
X134120000Y-68396190D01*
X133881904Y-68872380D02*
X133881904Y-67872380D01*
X134262857Y-67872380D01*
X134358095Y-67920000D01*
X134405714Y-67967619D01*
X134453333Y-68062857D01*
X134453333Y-68205714D01*
X134405714Y-68300952D01*
X134358095Y-68348571D01*
X134262857Y-68396190D01*
X133881904Y-68396190D01*
X135358095Y-67872380D02*
X134881904Y-67872380D01*
X134834285Y-68348571D01*
X134881904Y-68300952D01*
X134977142Y-68253333D01*
X135215238Y-68253333D01*
X135310476Y-68300952D01*
X135358095Y-68348571D01*
X135405714Y-68443809D01*
X135405714Y-68681904D01*
X135358095Y-68777142D01*
X135310476Y-68824761D01*
X135215238Y-68872380D01*
X134977142Y-68872380D01*
X134881904Y-68824761D01*
X134834285Y-68777142D01*
%TO.C,R1*%
X146073333Y-92052380D02*
X145740000Y-91576190D01*
X145501904Y-92052380D02*
X145501904Y-91052380D01*
X145882857Y-91052380D01*
X145978095Y-91100000D01*
X146025714Y-91147619D01*
X146073333Y-91242857D01*
X146073333Y-91385714D01*
X146025714Y-91480952D01*
X145978095Y-91528571D01*
X145882857Y-91576190D01*
X145501904Y-91576190D01*
X147025714Y-92052380D02*
X146454285Y-92052380D01*
X146740000Y-92052380D02*
X146740000Y-91052380D01*
X146644761Y-91195238D01*
X146549523Y-91290476D01*
X146454285Y-91338095D01*
D11*
%TO.C,C1*%
X144381666Y-85828571D02*
X144357857Y-85852380D01*
X144286428Y-85876190D01*
X144238809Y-85876190D01*
X144167380Y-85852380D01*
X144119761Y-85804761D01*
X144095952Y-85757142D01*
X144072142Y-85661904D01*
X144072142Y-85590476D01*
X144095952Y-85495238D01*
X144119761Y-85447619D01*
X144167380Y-85400000D01*
X144238809Y-85376190D01*
X144286428Y-85376190D01*
X144357857Y-85400000D01*
X144381666Y-85423809D01*
X144857857Y-85876190D02*
X144572142Y-85876190D01*
X144715000Y-85876190D02*
X144715000Y-85376190D01*
X144667380Y-85447619D01*
X144619761Y-85495238D01*
X144572142Y-85519047D01*
D10*
%TO.C,H2*%
X161798095Y-88992380D02*
X161798095Y-87992380D01*
X161798095Y-88468571D02*
X162369523Y-88468571D01*
X162369523Y-88992380D02*
X162369523Y-87992380D01*
X162798095Y-88087619D02*
X162845714Y-88040000D01*
X162940952Y-87992380D01*
X163179047Y-87992380D01*
X163274285Y-88040000D01*
X163321904Y-88087619D01*
X163369523Y-88182857D01*
X163369523Y-88278095D01*
X163321904Y-88420952D01*
X162750476Y-88992380D01*
X163369523Y-88992380D01*
%TO.C,H4*%
X128778095Y-88992380D02*
X128778095Y-87992380D01*
X128778095Y-88468571D02*
X129349523Y-88468571D01*
X129349523Y-88992380D02*
X129349523Y-87992380D01*
X130254285Y-88325714D02*
X130254285Y-88992380D01*
X130016190Y-87944761D02*
X129778095Y-88659047D01*
X130397142Y-88659047D01*
%TO.C,H1*%
X161798095Y-63592380D02*
X161798095Y-62592380D01*
X161798095Y-63068571D02*
X162369523Y-63068571D01*
X162369523Y-63592380D02*
X162369523Y-62592380D01*
X163369523Y-63592380D02*
X162798095Y-63592380D01*
X163083809Y-63592380D02*
X163083809Y-62592380D01*
X162988571Y-62735238D01*
X162893333Y-62830476D01*
X162798095Y-62878095D01*
D11*
%TO.C,C9*%
X143426666Y-66963571D02*
X143402857Y-66987380D01*
X143331428Y-67011190D01*
X143283809Y-67011190D01*
X143212380Y-66987380D01*
X143164761Y-66939761D01*
X143140952Y-66892142D01*
X143117142Y-66796904D01*
X143117142Y-66725476D01*
X143140952Y-66630238D01*
X143164761Y-66582619D01*
X143212380Y-66535000D01*
X143283809Y-66511190D01*
X143331428Y-66511190D01*
X143402857Y-66535000D01*
X143426666Y-66558809D01*
X143664761Y-67011190D02*
X143760000Y-67011190D01*
X143807619Y-66987380D01*
X143831428Y-66963571D01*
X143879047Y-66892142D01*
X143902857Y-66796904D01*
X143902857Y-66606428D01*
X143879047Y-66558809D01*
X143855238Y-66535000D01*
X143807619Y-66511190D01*
X143712380Y-66511190D01*
X143664761Y-66535000D01*
X143640952Y-66558809D01*
X143617142Y-66606428D01*
X143617142Y-66725476D01*
X143640952Y-66773095D01*
X143664761Y-66796904D01*
X143712380Y-66820714D01*
X143807619Y-66820714D01*
X143855238Y-66796904D01*
X143879047Y-66773095D01*
X143902857Y-66725476D01*
D10*
%TO.C,R2*%
X135098333Y-90452380D02*
X134765000Y-89976190D01*
X134526904Y-90452380D02*
X134526904Y-89452380D01*
X134907857Y-89452380D01*
X135003095Y-89500000D01*
X135050714Y-89547619D01*
X135098333Y-89642857D01*
X135098333Y-89785714D01*
X135050714Y-89880952D01*
X135003095Y-89928571D01*
X134907857Y-89976190D01*
X134526904Y-89976190D01*
X135479285Y-89547619D02*
X135526904Y-89500000D01*
X135622142Y-89452380D01*
X135860238Y-89452380D01*
X135955476Y-89500000D01*
X136003095Y-89547619D01*
X136050714Y-89642857D01*
X136050714Y-89738095D01*
X136003095Y-89880952D01*
X135431666Y-90452380D01*
X136050714Y-90452380D01*
D11*
%TO.C,C12*%
X162248571Y-74283571D02*
X162224761Y-74307380D01*
X162153333Y-74331190D01*
X162105714Y-74331190D01*
X162034285Y-74307380D01*
X161986666Y-74259761D01*
X161962857Y-74212142D01*
X161939047Y-74116904D01*
X161939047Y-74045476D01*
X161962857Y-73950238D01*
X161986666Y-73902619D01*
X162034285Y-73855000D01*
X162105714Y-73831190D01*
X162153333Y-73831190D01*
X162224761Y-73855000D01*
X162248571Y-73878809D01*
X162724761Y-74331190D02*
X162439047Y-74331190D01*
X162581904Y-74331190D02*
X162581904Y-73831190D01*
X162534285Y-73902619D01*
X162486666Y-73950238D01*
X162439047Y-73974047D01*
X162915238Y-73878809D02*
X162939047Y-73855000D01*
X162986666Y-73831190D01*
X163105714Y-73831190D01*
X163153333Y-73855000D01*
X163177142Y-73878809D01*
X163200952Y-73926428D01*
X163200952Y-73974047D01*
X163177142Y-74045476D01*
X162891428Y-74331190D01*
X163200952Y-74331190D01*
%TO.C,C7*%
X146926666Y-80298571D02*
X146902857Y-80322380D01*
X146831428Y-80346190D01*
X146783809Y-80346190D01*
X146712380Y-80322380D01*
X146664761Y-80274761D01*
X146640952Y-80227142D01*
X146617142Y-80131904D01*
X146617142Y-80060476D01*
X146640952Y-79965238D01*
X146664761Y-79917619D01*
X146712380Y-79870000D01*
X146783809Y-79846190D01*
X146831428Y-79846190D01*
X146902857Y-79870000D01*
X146926666Y-79893809D01*
X147093333Y-79846190D02*
X147426666Y-79846190D01*
X147212380Y-80346190D01*
D10*
%TO.C,H3*%
X128778095Y-63592380D02*
X128778095Y-62592380D01*
X128778095Y-63068571D02*
X129349523Y-63068571D01*
X129349523Y-63592380D02*
X129349523Y-62592380D01*
X129730476Y-62592380D02*
X130349523Y-62592380D01*
X130016190Y-62973333D01*
X130159047Y-62973333D01*
X130254285Y-63020952D01*
X130301904Y-63068571D01*
X130349523Y-63163809D01*
X130349523Y-63401904D01*
X130301904Y-63497142D01*
X130254285Y-63544761D01*
X130159047Y-63592380D01*
X129873333Y-63592380D01*
X129778095Y-63544761D01*
X129730476Y-63497142D01*
D11*
%TO.C,C6*%
X144696666Y-80298571D02*
X144672857Y-80322380D01*
X144601428Y-80346190D01*
X144553809Y-80346190D01*
X144482380Y-80322380D01*
X144434761Y-80274761D01*
X144410952Y-80227142D01*
X144387142Y-80131904D01*
X144387142Y-80060476D01*
X144410952Y-79965238D01*
X144434761Y-79917619D01*
X144482380Y-79870000D01*
X144553809Y-79846190D01*
X144601428Y-79846190D01*
X144672857Y-79870000D01*
X144696666Y-79893809D01*
X145125238Y-79846190D02*
X145030000Y-79846190D01*
X144982380Y-79870000D01*
X144958571Y-79893809D01*
X144910952Y-79965238D01*
X144887142Y-80060476D01*
X144887142Y-80250952D01*
X144910952Y-80298571D01*
X144934761Y-80322380D01*
X144982380Y-80346190D01*
X145077619Y-80346190D01*
X145125238Y-80322380D01*
X145149047Y-80298571D01*
X145172857Y-80250952D01*
X145172857Y-80131904D01*
X145149047Y-80084285D01*
X145125238Y-80060476D01*
X145077619Y-80036666D01*
X144982380Y-80036666D01*
X144934761Y-80060476D01*
X144910952Y-80084285D01*
X144887142Y-80131904D01*
D10*
%TO.C,R3*%
X135088333Y-86642380D02*
X134755000Y-86166190D01*
X134516904Y-86642380D02*
X134516904Y-85642380D01*
X134897857Y-85642380D01*
X134993095Y-85690000D01*
X135040714Y-85737619D01*
X135088333Y-85832857D01*
X135088333Y-85975714D01*
X135040714Y-86070952D01*
X134993095Y-86118571D01*
X134897857Y-86166190D01*
X134516904Y-86166190D01*
X135421666Y-85642380D02*
X136040714Y-85642380D01*
X135707380Y-86023333D01*
X135850238Y-86023333D01*
X135945476Y-86070952D01*
X135993095Y-86118571D01*
X136040714Y-86213809D01*
X136040714Y-86451904D01*
X135993095Y-86547142D01*
X135945476Y-86594761D01*
X135850238Y-86642380D01*
X135564523Y-86642380D01*
X135469285Y-86594761D01*
X135421666Y-86547142D01*
D11*
%TO.C,C5*%
X146601666Y-76488571D02*
X146577857Y-76512380D01*
X146506428Y-76536190D01*
X146458809Y-76536190D01*
X146387380Y-76512380D01*
X146339761Y-76464761D01*
X146315952Y-76417142D01*
X146292142Y-76321904D01*
X146292142Y-76250476D01*
X146315952Y-76155238D01*
X146339761Y-76107619D01*
X146387380Y-76060000D01*
X146458809Y-76036190D01*
X146506428Y-76036190D01*
X146577857Y-76060000D01*
X146601666Y-76083809D01*
X147054047Y-76036190D02*
X146815952Y-76036190D01*
X146792142Y-76274285D01*
X146815952Y-76250476D01*
X146863571Y-76226666D01*
X146982619Y-76226666D01*
X147030238Y-76250476D01*
X147054047Y-76274285D01*
X147077857Y-76321904D01*
X147077857Y-76440952D01*
X147054047Y-76488571D01*
X147030238Y-76512380D01*
X146982619Y-76536190D01*
X146863571Y-76536190D01*
X146815952Y-76512380D01*
X146792142Y-76488571D01*
%TO.C,C11*%
X162238571Y-70773571D02*
X162214761Y-70797380D01*
X162143333Y-70821190D01*
X162095714Y-70821190D01*
X162024285Y-70797380D01*
X161976666Y-70749761D01*
X161952857Y-70702142D01*
X161929047Y-70606904D01*
X161929047Y-70535476D01*
X161952857Y-70440238D01*
X161976666Y-70392619D01*
X162024285Y-70345000D01*
X162095714Y-70321190D01*
X162143333Y-70321190D01*
X162214761Y-70345000D01*
X162238571Y-70368809D01*
X162714761Y-70821190D02*
X162429047Y-70821190D01*
X162571904Y-70821190D02*
X162571904Y-70321190D01*
X162524285Y-70392619D01*
X162476666Y-70440238D01*
X162429047Y-70464047D01*
X163190952Y-70821190D02*
X162905238Y-70821190D01*
X163048095Y-70821190D02*
X163048095Y-70321190D01*
X163000476Y-70392619D01*
X162952857Y-70440238D01*
X162905238Y-70464047D01*
%TO.C,C4*%
X146601666Y-76603571D02*
X146577857Y-76627380D01*
X146506428Y-76651190D01*
X146458809Y-76651190D01*
X146387380Y-76627380D01*
X146339761Y-76579761D01*
X146315952Y-76532142D01*
X146292142Y-76436904D01*
X146292142Y-76365476D01*
X146315952Y-76270238D01*
X146339761Y-76222619D01*
X146387380Y-76175000D01*
X146458809Y-76151190D01*
X146506428Y-76151190D01*
X146577857Y-76175000D01*
X146601666Y-76198809D01*
X147030238Y-76317857D02*
X147030238Y-76651190D01*
X146911190Y-76127380D02*
X146792142Y-76484523D01*
X147101666Y-76484523D01*
%TO.C,C13*%
X162248571Y-76823571D02*
X162224761Y-76847380D01*
X162153333Y-76871190D01*
X162105714Y-76871190D01*
X162034285Y-76847380D01*
X161986666Y-76799761D01*
X161962857Y-76752142D01*
X161939047Y-76656904D01*
X161939047Y-76585476D01*
X161962857Y-76490238D01*
X161986666Y-76442619D01*
X162034285Y-76395000D01*
X162105714Y-76371190D01*
X162153333Y-76371190D01*
X162224761Y-76395000D01*
X162248571Y-76418809D01*
X162724761Y-76871190D02*
X162439047Y-76871190D01*
X162581904Y-76871190D02*
X162581904Y-76371190D01*
X162534285Y-76442619D01*
X162486666Y-76490238D01*
X162439047Y-76514047D01*
X162891428Y-76371190D02*
X163200952Y-76371190D01*
X163034285Y-76561666D01*
X163105714Y-76561666D01*
X163153333Y-76585476D01*
X163177142Y-76609285D01*
X163200952Y-76656904D01*
X163200952Y-76775952D01*
X163177142Y-76823571D01*
X163153333Y-76847380D01*
X163105714Y-76871190D01*
X162962857Y-76871190D01*
X162915238Y-76847380D01*
X162891428Y-76823571D01*
%TO.C,C2*%
X136441666Y-70888571D02*
X136417857Y-70912380D01*
X136346428Y-70936190D01*
X136298809Y-70936190D01*
X136227380Y-70912380D01*
X136179761Y-70864761D01*
X136155952Y-70817142D01*
X136132142Y-70721904D01*
X136132142Y-70650476D01*
X136155952Y-70555238D01*
X136179761Y-70507619D01*
X136227380Y-70460000D01*
X136298809Y-70436190D01*
X136346428Y-70436190D01*
X136417857Y-70460000D01*
X136441666Y-70483809D01*
X136632142Y-70483809D02*
X136655952Y-70460000D01*
X136703571Y-70436190D01*
X136822619Y-70436190D01*
X136870238Y-70460000D01*
X136894047Y-70483809D01*
X136917857Y-70531428D01*
X136917857Y-70579047D01*
X136894047Y-70650476D01*
X136608333Y-70936190D01*
X136917857Y-70936190D01*
%TO.C,C8*%
X142643571Y-71203333D02*
X142667380Y-71227142D01*
X142691190Y-71298571D01*
X142691190Y-71346190D01*
X142667380Y-71417619D01*
X142619761Y-71465238D01*
X142572142Y-71489047D01*
X142476904Y-71512857D01*
X142405476Y-71512857D01*
X142310238Y-71489047D01*
X142262619Y-71465238D01*
X142215000Y-71417619D01*
X142191190Y-71346190D01*
X142191190Y-71298571D01*
X142215000Y-71227142D01*
X142238809Y-71203333D01*
X142405476Y-70917619D02*
X142381666Y-70965238D01*
X142357857Y-70989047D01*
X142310238Y-71012857D01*
X142286428Y-71012857D01*
X142238809Y-70989047D01*
X142215000Y-70965238D01*
X142191190Y-70917619D01*
X142191190Y-70822380D01*
X142215000Y-70774761D01*
X142238809Y-70750952D01*
X142286428Y-70727142D01*
X142310238Y-70727142D01*
X142357857Y-70750952D01*
X142381666Y-70774761D01*
X142405476Y-70822380D01*
X142405476Y-70917619D01*
X142429285Y-70965238D01*
X142453095Y-70989047D01*
X142500714Y-71012857D01*
X142595952Y-71012857D01*
X142643571Y-70989047D01*
X142667380Y-70965238D01*
X142691190Y-70917619D01*
X142691190Y-70822380D01*
X142667380Y-70774761D01*
X142643571Y-70750952D01*
X142595952Y-70727142D01*
X142500714Y-70727142D01*
X142453095Y-70750952D01*
X142429285Y-70774761D01*
X142405476Y-70822380D01*
%TO.C,C3*%
X137076666Y-68868571D02*
X137052857Y-68892380D01*
X136981428Y-68916190D01*
X136933809Y-68916190D01*
X136862380Y-68892380D01*
X136814761Y-68844761D01*
X136790952Y-68797142D01*
X136767142Y-68701904D01*
X136767142Y-68630476D01*
X136790952Y-68535238D01*
X136814761Y-68487619D01*
X136862380Y-68440000D01*
X136933809Y-68416190D01*
X136981428Y-68416190D01*
X137052857Y-68440000D01*
X137076666Y-68463809D01*
X137243333Y-68416190D02*
X137552857Y-68416190D01*
X137386190Y-68606666D01*
X137457619Y-68606666D01*
X137505238Y-68630476D01*
X137529047Y-68654285D01*
X137552857Y-68701904D01*
X137552857Y-68820952D01*
X137529047Y-68868571D01*
X137505238Y-68892380D01*
X137457619Y-68916190D01*
X137314761Y-68916190D01*
X137267142Y-68892380D01*
X137243333Y-68868571D01*
%TO.C,C10*%
X162238571Y-68868571D02*
X162214761Y-68892380D01*
X162143333Y-68916190D01*
X162095714Y-68916190D01*
X162024285Y-68892380D01*
X161976666Y-68844761D01*
X161952857Y-68797142D01*
X161929047Y-68701904D01*
X161929047Y-68630476D01*
X161952857Y-68535238D01*
X161976666Y-68487619D01*
X162024285Y-68440000D01*
X162095714Y-68416190D01*
X162143333Y-68416190D01*
X162214761Y-68440000D01*
X162238571Y-68463809D01*
X162714761Y-68916190D02*
X162429047Y-68916190D01*
X162571904Y-68916190D02*
X162571904Y-68416190D01*
X162524285Y-68487619D01*
X162476666Y-68535238D01*
X162429047Y-68559047D01*
X163024285Y-68416190D02*
X163071904Y-68416190D01*
X163119523Y-68440000D01*
X163143333Y-68463809D01*
X163167142Y-68511428D01*
X163190952Y-68606666D01*
X163190952Y-68725714D01*
X163167142Y-68820952D01*
X163143333Y-68868571D01*
X163119523Y-68892380D01*
X163071904Y-68916190D01*
X163024285Y-68916190D01*
X162976666Y-68892380D01*
X162952857Y-68868571D01*
X162929047Y-68820952D01*
X162905238Y-68725714D01*
X162905238Y-68606666D01*
X162929047Y-68511428D01*
X162952857Y-68463809D01*
X162976666Y-68440000D01*
X163024285Y-68416190D01*
D12*
%TO.C,U4*%
X155155900Y-73571100D02*
X150914100Y-73571100D01*
X150914100Y-78828900D02*
X155155900Y-78828900D01*
%TO.C,U3*%
X155155900Y-65316100D02*
X150914100Y-65316100D01*
X150914100Y-70573900D02*
X155155900Y-70573900D01*
%TO.C,U2*%
X141312900Y-70213261D02*
X141312900Y-69486739D01*
X141312900Y-68224400D02*
X139357100Y-68224400D01*
X139357100Y-71475600D02*
X141312900Y-71475600D01*
%TO.C,U1*%
X135470900Y-75476100D02*
X131229100Y-75476100D01*
X131229100Y-80733900D02*
X135470900Y-80733900D01*
%TO.C,R19*%
X162332742Y-80232500D02*
X162807258Y-80232500D01*
X162332742Y-79187500D02*
X162807258Y-79187500D01*
%TO.C,R18*%
X162332742Y-74182500D02*
X162807258Y-74182500D01*
X162332742Y-73137500D02*
X162807258Y-73137500D01*
%TO.C,R17*%
X159147742Y-78327500D02*
X159622258Y-78327500D01*
X159147742Y-77282500D02*
X159622258Y-77282500D01*
%TO.C,R16*%
X159622258Y-71232500D02*
X159147742Y-71232500D01*
X159622258Y-72277500D02*
X159147742Y-72277500D01*
%TO.C,R15*%
X159147742Y-75787500D02*
X159622258Y-75787500D01*
X159147742Y-74742500D02*
X159622258Y-74742500D01*
%TO.C,R14*%
X159147742Y-70372500D02*
X159622258Y-70372500D01*
X159147742Y-69327500D02*
X159622258Y-69327500D01*
%TO.C,R13*%
X143272742Y-84677500D02*
X143747258Y-84677500D01*
X143272742Y-83632500D02*
X143747258Y-83632500D01*
%TO.C,R12*%
X143397742Y-75787500D02*
X143872258Y-75787500D01*
X143397742Y-74742500D02*
X143872258Y-74742500D01*
%TO.C,R11*%
X146747742Y-84677500D02*
X147222258Y-84677500D01*
X146747742Y-83632500D02*
X147222258Y-83632500D01*
%TO.C,R10*%
X143397742Y-77992500D02*
X143872258Y-77992500D01*
X143397742Y-76947500D02*
X143872258Y-76947500D01*
%TO.C,R9*%
X140097742Y-81167500D02*
X140572258Y-81167500D01*
X140097742Y-80122500D02*
X140572258Y-80122500D01*
%TO.C,R8*%
X139462742Y-77992500D02*
X139937258Y-77992500D01*
X139462742Y-76947500D02*
X139937258Y-76947500D01*
%TO.C,R7*%
X137682500Y-67547258D02*
X137682500Y-67072742D01*
X136637500Y-67547258D02*
X136637500Y-67072742D01*
%TO.C,R6*%
X134382742Y-68467500D02*
X134857258Y-68467500D01*
X134382742Y-67422500D02*
X134857258Y-67422500D01*
%TO.C,R5*%
X134382742Y-70372500D02*
X134857258Y-70372500D01*
X134382742Y-69327500D02*
X134857258Y-69327500D01*
%TO.C,R1*%
X146477258Y-89647500D02*
X146002742Y-89647500D01*
X146477258Y-90692500D02*
X146002742Y-90692500D01*
%TO.C,C1*%
X144203748Y-88065000D02*
X144726252Y-88065000D01*
X144203748Y-86595000D02*
X144726252Y-86595000D01*
%TO.C,C9*%
X143402164Y-68305000D02*
X143617836Y-68305000D01*
X143402164Y-67585000D02*
X143617836Y-67585000D01*
%TO.C,R2*%
X131225000Y-87630000D02*
X131995000Y-87630000D01*
X139305000Y-87630000D02*
X138535000Y-87630000D01*
X138535000Y-89000000D02*
X138535000Y-86260000D01*
X131995000Y-86260000D02*
X131995000Y-89000000D01*
X138535000Y-86260000D02*
X131995000Y-86260000D01*
X131995000Y-89000000D02*
X138535000Y-89000000D01*
%TO.C,C12*%
X162462164Y-75625000D02*
X162677836Y-75625000D01*
X162462164Y-74905000D02*
X162677836Y-74905000D01*
%TO.C,C7*%
X146902164Y-81640000D02*
X147117836Y-81640000D01*
X146902164Y-80920000D02*
X147117836Y-80920000D01*
%TO.C,C6*%
X144672164Y-81640000D02*
X144887836Y-81640000D01*
X144672164Y-80920000D02*
X144887836Y-80920000D01*
%TO.C,R3*%
X131215000Y-83820000D02*
X131985000Y-83820000D01*
X139295000Y-83820000D02*
X138525000Y-83820000D01*
X138525000Y-85190000D02*
X138525000Y-82450000D01*
X131985000Y-82450000D02*
X131985000Y-85190000D01*
X138525000Y-82450000D02*
X131985000Y-82450000D01*
X131985000Y-85190000D02*
X138525000Y-85190000D01*
%TO.C,C5*%
X146577164Y-77830000D02*
X146792836Y-77830000D01*
X146577164Y-77110000D02*
X146792836Y-77110000D01*
%TO.C,C11*%
X162452164Y-72115000D02*
X162667836Y-72115000D01*
X162452164Y-71395000D02*
X162667836Y-71395000D01*
%TO.C,C4*%
X146792836Y-74905000D02*
X146577164Y-74905000D01*
X146792836Y-75625000D02*
X146577164Y-75625000D01*
%TO.C,C13*%
X162462164Y-78165000D02*
X162677836Y-78165000D01*
X162462164Y-77445000D02*
X162677836Y-77445000D01*
%TO.C,C2*%
X136263748Y-73125000D02*
X136786252Y-73125000D01*
X136263748Y-71655000D02*
X136786252Y-71655000D01*
%TO.C,C8*%
X144880000Y-71381252D02*
X144880000Y-70858748D01*
X143410000Y-71381252D02*
X143410000Y-70858748D01*
%TO.C,J1*%
X159455000Y-91365000D02*
X149155000Y-91365000D01*
X150505000Y-90255000D02*
X155585000Y-90255000D01*
X156255000Y-85415000D02*
X159455000Y-85415000D01*
X150505000Y-91265000D02*
X150505000Y-90255000D01*
X155585000Y-90255000D02*
X155585000Y-91265000D01*
X159455000Y-85415000D02*
X159455000Y-91365000D01*
X149155000Y-91365000D02*
X149155000Y-85365000D01*
X149155000Y-85365000D02*
X154905000Y-85365000D01*
%TO.C,C3*%
X137052164Y-70210000D02*
X137267836Y-70210000D01*
X137052164Y-69490000D02*
X137267836Y-69490000D01*
%TO.C,C10*%
X162452164Y-70210000D02*
X162667836Y-70210000D01*
X162452164Y-69490000D02*
X162667836Y-69490000D01*
%TD*%
%LPC*%
D13*
%TO.C,U4*%
X150571200Y-74295000D03*
X150571200Y-75565000D03*
X150571200Y-76835000D03*
X150571200Y-78105000D03*
X155498800Y-78105000D03*
X155498800Y-76835000D03*
X155498800Y-75565000D03*
X155498800Y-74295000D03*
%TD*%
%TO.C,U3*%
X150571200Y-66040000D03*
X150571200Y-67310000D03*
X150571200Y-68580000D03*
X150571200Y-69850000D03*
X155498800Y-69850000D03*
X155498800Y-68580000D03*
X155498800Y-67310000D03*
X155498800Y-66040000D03*
%TD*%
D14*
%TO.C,U2*%
X139115800Y-68899999D03*
X139115800Y-69850000D03*
X139115800Y-70800001D03*
X141554200Y-70800001D03*
X141554200Y-68899999D03*
%TD*%
D13*
%TO.C,U1*%
X130886200Y-76200000D03*
X130886200Y-77470000D03*
X130886200Y-78740000D03*
X130886200Y-80010000D03*
X135813800Y-80010000D03*
X135813800Y-78740000D03*
X135813800Y-77470000D03*
X135813800Y-76200000D03*
%TD*%
D15*
%TO.C,R19*%
X161745000Y-79710000D03*
X163395000Y-79710000D03*
%TD*%
%TO.C,R18*%
X161745000Y-73660000D03*
X163395000Y-73660000D03*
%TD*%
%TO.C,R17*%
X158560000Y-77805000D03*
X160210000Y-77805000D03*
%TD*%
D16*
%TO.C,R16*%
X160210000Y-71755000D03*
X158560000Y-71755000D03*
%TD*%
D15*
%TO.C,R15*%
X158560000Y-75265000D03*
X160210000Y-75265000D03*
%TD*%
%TO.C,R14*%
X158560000Y-69850000D03*
X160210000Y-69850000D03*
%TD*%
%TO.C,R13*%
X142685000Y-84155000D03*
X144335000Y-84155000D03*
%TD*%
%TO.C,R12*%
X142810000Y-75265000D03*
X144460000Y-75265000D03*
%TD*%
%TO.C,R11*%
X146160000Y-84155000D03*
X147810000Y-84155000D03*
%TD*%
%TO.C,R10*%
X142810000Y-77470000D03*
X144460000Y-77470000D03*
%TD*%
%TO.C,R9*%
X139510000Y-80645000D03*
X141160000Y-80645000D03*
%TD*%
%TO.C,R8*%
X138875000Y-77470000D03*
X140525000Y-77470000D03*
%TD*%
D17*
%TO.C,R7*%
X137160000Y-68135000D03*
X137160000Y-66485000D03*
%TD*%
D15*
%TO.C,R6*%
X133795000Y-67945000D03*
X135445000Y-67945000D03*
%TD*%
%TO.C,R5*%
X133795000Y-69850000D03*
X135445000Y-69850000D03*
%TD*%
D16*
%TO.C,R1*%
X147065000Y-90170000D03*
X145415000Y-90170000D03*
%TD*%
D18*
%TO.C,C1*%
X143515000Y-87330000D03*
X145415000Y-87330000D03*
%TD*%
D19*
%TO.C,H2*%
X162560000Y-91440000D03*
%TD*%
%TO.C,H4*%
X129540000Y-91440000D03*
%TD*%
%TO.C,H1*%
X162560000Y-66040000D03*
%TD*%
D20*
%TO.C,C9*%
X143030000Y-67945000D03*
X143990000Y-67945000D03*
%TD*%
D21*
%TO.C,R2*%
X140345000Y-87630000D03*
D22*
X130185000Y-87630000D03*
%TD*%
D20*
%TO.C,C12*%
X162090000Y-75265000D03*
X163050000Y-75265000D03*
%TD*%
%TO.C,C7*%
X146530000Y-81280000D03*
X147490000Y-81280000D03*
%TD*%
D19*
%TO.C,H3*%
X129540000Y-66040000D03*
%TD*%
D20*
%TO.C,C6*%
X144300000Y-81280000D03*
X145260000Y-81280000D03*
%TD*%
D21*
%TO.C,R3*%
X140335000Y-83820000D03*
D22*
X130175000Y-83820000D03*
%TD*%
D20*
%TO.C,C5*%
X146205000Y-77470000D03*
X147165000Y-77470000D03*
%TD*%
%TO.C,C11*%
X162080000Y-71755000D03*
X163040000Y-71755000D03*
%TD*%
D23*
%TO.C,C4*%
X147165000Y-75265000D03*
X146205000Y-75265000D03*
%TD*%
D20*
%TO.C,C13*%
X162090000Y-77805000D03*
X163050000Y-77805000D03*
%TD*%
D18*
%TO.C,C2*%
X135575000Y-72390000D03*
X137475000Y-72390000D03*
%TD*%
D24*
%TO.C,C8*%
X144145000Y-72070000D03*
X144145000Y-70170000D03*
%TD*%
D25*
%TO.C,J1*%
X155585000Y-85805000D03*
D26*
X150505000Y-87965000D03*
D27*
X153045000Y-87965000D03*
X155585000Y-87965000D03*
X158125000Y-87965000D03*
%TD*%
D20*
%TO.C,C3*%
X136680000Y-69850000D03*
X137640000Y-69850000D03*
%TD*%
%TO.C,C10*%
X162080000Y-69850000D03*
X163040000Y-69850000D03*
%TD*%
M02*
