%TF.GenerationSoftware,KiCad,Pcbnew,(6.0.4)*%
%TF.CreationDate,2022-04-21T21:48:53-10:00*%
%TF.ProjectId,filter_v2,66696c74-6572-45f7-9632-2e6b69636164,rev?*%
%TF.SameCoordinates,Original*%
%TF.FileFunction,Paste,Top*%
%TF.FilePolarity,Positive*%
%FSLAX46Y46*%
G04 Gerber Fmt 4.6, Leading zero omitted, Abs format (unit mm)*
G04 Created by KiCad (PCBNEW (6.0.4)) date 2022-04-21 21:48:53*
%MOMM*%
%LPD*%
G01*
G04 APERTURE LIST*
G04 Aperture macros list*
%AMRoundRect*
0 Rectangle with rounded corners*
0 $1 Rounding radius*
0 $2 $3 $4 $5 $6 $7 $8 $9 X,Y pos of 4 corners*
0 Add a 4 corners polygon primitive as box body*
4,1,4,$2,$3,$4,$5,$6,$7,$8,$9,$2,$3,0*
0 Add four circle primitives for the rounded corners*
1,1,$1+$1,$2,$3*
1,1,$1+$1,$4,$5*
1,1,$1+$1,$6,$7*
1,1,$1+$1,$8,$9*
0 Add four rect primitives between the rounded corners*
20,1,$1+$1,$2,$3,$4,$5,0*
20,1,$1+$1,$4,$5,$6,$7,0*
20,1,$1+$1,$6,$7,$8,$9,0*
20,1,$1+$1,$8,$9,$2,$3,0*%
G04 Aperture macros list end*
%ADD10R,1.969999X0.558000*%
%ADD11R,1.258799X0.508000*%
%ADD12RoundRect,0.200000X-0.200000X-0.275000X0.200000X-0.275000X0.200000X0.275000X-0.200000X0.275000X0*%
%ADD13RoundRect,0.200000X0.200000X0.275000X-0.200000X0.275000X-0.200000X-0.275000X0.200000X-0.275000X0*%
%ADD14RoundRect,0.200000X0.275000X-0.200000X0.275000X0.200000X-0.275000X0.200000X-0.275000X-0.200000X0*%
%ADD15RoundRect,0.250000X-0.250000X-0.475000X0.250000X-0.475000X0.250000X0.475000X-0.250000X0.475000X0*%
%ADD16RoundRect,0.140000X-0.140000X-0.170000X0.140000X-0.170000X0.140000X0.170000X-0.140000X0.170000X0*%
%ADD17RoundRect,0.140000X0.140000X0.170000X-0.140000X0.170000X-0.140000X-0.170000X0.140000X-0.170000X0*%
%ADD18RoundRect,0.250000X0.475000X-0.250000X0.475000X0.250000X-0.475000X0.250000X-0.475000X-0.250000X0*%
G04 APERTURE END LIST*
D10*
%TO.C,U4*%
X150571200Y-74295000D03*
X150571200Y-75565000D03*
X150571200Y-76835000D03*
X150571200Y-78105000D03*
X155498800Y-78105000D03*
X155498800Y-76835000D03*
X155498800Y-75565000D03*
X155498800Y-74295000D03*
%TD*%
%TO.C,U3*%
X150571200Y-66040000D03*
X150571200Y-67310000D03*
X150571200Y-68580000D03*
X150571200Y-69850000D03*
X155498800Y-69850000D03*
X155498800Y-68580000D03*
X155498800Y-67310000D03*
X155498800Y-66040000D03*
%TD*%
D11*
%TO.C,U2*%
X139115800Y-68899999D03*
X139115800Y-69850000D03*
X139115800Y-70800001D03*
X141554200Y-70800001D03*
X141554200Y-68899999D03*
%TD*%
D10*
%TO.C,U1*%
X130886200Y-76200000D03*
X130886200Y-77470000D03*
X130886200Y-78740000D03*
X130886200Y-80010000D03*
X135813800Y-80010000D03*
X135813800Y-78740000D03*
X135813800Y-77470000D03*
X135813800Y-76200000D03*
%TD*%
D12*
%TO.C,R19*%
X161745000Y-79710000D03*
X163395000Y-79710000D03*
%TD*%
%TO.C,R18*%
X161745000Y-73660000D03*
X163395000Y-73660000D03*
%TD*%
%TO.C,R17*%
X158560000Y-77805000D03*
X160210000Y-77805000D03*
%TD*%
D13*
%TO.C,R16*%
X160210000Y-71755000D03*
X158560000Y-71755000D03*
%TD*%
D12*
%TO.C,R15*%
X158560000Y-75265000D03*
X160210000Y-75265000D03*
%TD*%
%TO.C,R14*%
X158560000Y-69850000D03*
X160210000Y-69850000D03*
%TD*%
%TO.C,R13*%
X142685000Y-84155000D03*
X144335000Y-84155000D03*
%TD*%
%TO.C,R12*%
X142810000Y-75265000D03*
X144460000Y-75265000D03*
%TD*%
%TO.C,R11*%
X146160000Y-84155000D03*
X147810000Y-84155000D03*
%TD*%
%TO.C,R10*%
X142810000Y-77470000D03*
X144460000Y-77470000D03*
%TD*%
%TO.C,R9*%
X139510000Y-80645000D03*
X141160000Y-80645000D03*
%TD*%
%TO.C,R8*%
X138875000Y-77470000D03*
X140525000Y-77470000D03*
%TD*%
D14*
%TO.C,R7*%
X137160000Y-68135000D03*
X137160000Y-66485000D03*
%TD*%
D12*
%TO.C,R6*%
X133795000Y-67945000D03*
X135445000Y-67945000D03*
%TD*%
%TO.C,R5*%
X133795000Y-69850000D03*
X135445000Y-69850000D03*
%TD*%
D13*
%TO.C,R1*%
X147065000Y-90170000D03*
X145415000Y-90170000D03*
%TD*%
D15*
%TO.C,C1*%
X143515000Y-87330000D03*
X145415000Y-87330000D03*
%TD*%
D16*
%TO.C,C9*%
X143030000Y-67945000D03*
X143990000Y-67945000D03*
%TD*%
%TO.C,C12*%
X162090000Y-75265000D03*
X163050000Y-75265000D03*
%TD*%
%TO.C,C7*%
X146530000Y-81280000D03*
X147490000Y-81280000D03*
%TD*%
%TO.C,C6*%
X144300000Y-81280000D03*
X145260000Y-81280000D03*
%TD*%
%TO.C,C5*%
X146205000Y-77470000D03*
X147165000Y-77470000D03*
%TD*%
%TO.C,C11*%
X162080000Y-71755000D03*
X163040000Y-71755000D03*
%TD*%
D17*
%TO.C,C4*%
X147165000Y-75265000D03*
X146205000Y-75265000D03*
%TD*%
D16*
%TO.C,C13*%
X162090000Y-77805000D03*
X163050000Y-77805000D03*
%TD*%
D15*
%TO.C,C2*%
X135575000Y-72390000D03*
X137475000Y-72390000D03*
%TD*%
D18*
%TO.C,C8*%
X144145000Y-72070000D03*
X144145000Y-70170000D03*
%TD*%
D16*
%TO.C,C3*%
X136680000Y-69850000D03*
X137640000Y-69850000D03*
%TD*%
%TO.C,C10*%
X162080000Y-69850000D03*
X163040000Y-69850000D03*
%TD*%
M02*
