M48
; DRILL file {KiCad (6.0.4)} date Thu Apr 21 21:49:32 2022
; FORMAT={-:-/ absolute / metric / decimal}
; #@! TF.CreationDate,2022-04-21T21:49:32-10:00
; #@! TF.GenerationSoftware,Kicad,Pcbnew,(6.0.4)
; #@! TF.FileFunction,Plated,1,2,PTH
FMAT,2
METRIC
; #@! TA.AperFunction,Plated,PTH,ViaDrill
T1C0.400
; #@! TA.AperFunction,Plated,PTH,ComponentDrill
T2C0.800
; #@! TA.AperFunction,Plated,PTH,ComponentDrill
T3C1.020
; #@! TA.AperFunction,Plated,PTH,ComponentDrill
T4C2.200
%
G90
G05
T1
X132.08Y-81.915
X132.715Y-77.591
X133.985Y-78.105
X137.795Y-68.49
X137.795Y-80.01
X137.795Y-81.28
X140.335Y-74.93
X140.345Y-70.575
X141.042Y-75.637
X141.935Y-75.034
X142.24Y-79.375
X142.875Y-69.126
X142.875Y-82.55
X144.145Y-80.01
X144.764Y-82.621
X145.415Y-67.945
X146.05Y-71.755
X146.775Y-68.67
X147.302Y-83.142
X148.59Y-74.295
X151.765Y-86.36
X151.859Y-67.784
X153.035Y-69.215
X153.035Y-75.565
X153.67Y-74.295
X153.76Y-76.745
X154.305Y-80.01
X157.144Y-69.459
X160.02Y-79.375
X161.92Y-70.846
T2
X130.175Y-83.82
X130.185Y-87.63
X140.335Y-83.82
X140.345Y-87.63
T3
X150.505Y-87.965
X153.045Y-87.965
X155.585Y-87.965
X158.125Y-87.965
T4
X129.54Y-66.04
X129.54Y-91.44
X162.56Y-66.04
X162.56Y-91.44
T0
M30
